<?xml version="1.0" encoding="UTF-8"?>
<!DOCTYPE svg PUBLIC "-//W3C//DTD SVG 1.1//EN" "http://www.w3.org/Graphics/SVG/1.1/DTD/svg11.dtd">
<svg xmlns="http://www.w3.org/2000/svg" version="1.1" width="1024px" height="314px" style="shape-rendering:geometricPrecision; text-rendering:geometricPrecision; image-rendering:optimizeQuality; fill-rule:evenodd; clip-rule:evenodd" xmlns:xlink="http://www.w3.org/1999/xlink">
<g><path fill="#5a5a5a" fill-opacity="0.757" d="M 923.61,230.99 c 3.55,0.08 7.1,0.09 10.65,0.05 c 0.05,1.73 -7.46,0.53 -8.8,0.88 c -0.82,0.04 -1.43,-0.27 -1.85,-0.93 Z"/></g>
<g><path fill="#5f5f5f" fill-opacity="0.843" d="M 49.76,225.95 c 1.85,0.09 6,-0.41 7.45,0.78 c -1.68,-0.21 -6.87,1.35 -7.45,-0.78 Z"/></g>
<g><path fill="#646464" fill-opacity="0.635" d="M 556.66,226.02 c 1.74,0.08 5.13,-0.38 6.57,0.7 c -1.6,0.23 -3.19,0.3 -4.8,0.21 c -0.81,0.05 -1.4,-0.25 -1.77,-0.91 Z"/></g>
<g><path fill="#656565" fill-opacity="0.753" d="M 178.27,225.88 c -0.02,1.85 -5.27,0.84 -6.44,1.04 c 0.68,-1.49 4.99,-0.7 6.44,-1.04 Z"/></g>
<g><path fill="#636363" fill-opacity="0.718" d="M 481.79,225.91 c 1.69,0.3 5.24,-0.51 6.44,0.88 c -1.08,-0.16 -6.54,0.86 -6.44,-0.88 Z"/></g>
<g><path fill="#626262" fill-opacity="0.788" d="M 200.62,226 c 1.55,0.06 4.41,-0.34 5.63,0.75 c -1.58,-0.05 -4.73,0.91 -5.63,-0.75 Z"/></g>
<g><path fill="#5b5b5b" fill-opacity="0.792" d="M 548.26,225.96 c -0.22,1.43 -3.36,0.91 -4.39,1.02 c 0.72,-1.52 3.05,-0.83 4.39,-1.02 Z"/></g>
<g><path fill="#5c5c5c" fill-opacity="0.843" d="M 922.23,38.91 c 0.21,1.63 -3.57,0.91 -4.49,0.96 c 0.97,-1.25 3.1,-0.78 4.49,-0.96 Z"/></g>
<g><path fill="#5f5f5f" fill-opacity="0.631" d="M 448.67,125.13 c 0.73,-0.06 1.28,0.21 1.65,0.83 c -0.72,0.06 -1.27,-0.22 -1.65,-0.83 Z M 198.95,202.61 c 0.68,0.4 1.08,0.99 1.22,1.77 c -0.74,-0.36 -1.15,-0.95 -1.22,-1.77 Z M 967.23,226.95 c -0.29,0.61 -0.79,0.93 -1.49,0.96 c 0.35,-0.54 0.85,-0.86 1.49,-0.96 Z"/></g>
<g><path fill="#676767" fill-opacity="0.435" stroke="#676767" stroke-width="0.5" stroke-opacity="0.435" d="M 889.32,46.97 c -0.35,0.66 -0.9,1 -1.65,1.04 c 0.34,-0.68 0.89,-1.02 1.65,-1.04 Z M 635.77,227 c 0.73,-0.04 1.22,0.27 1.47,0.94 c -0.72,0.04 -1.21,-0.27 -1.47,-0.94 Z"/></g>
<g><path fill="#5f5f5f" fill-opacity="0.592" d="M 408.06,215.68 c 0.58,0.36 0.96,0.87 1.13,1.54 c -0.71,-0.27 -1.09,-0.78 -1.13,-1.54 Z M 160.21,221.94 c -0.33,0.61 -0.84,0.97 -1.53,1.07 c 0.32,-0.59 0.83,-0.95 1.53,-1.07 Z"/></g>
<g><path fill="#5b5b5b" fill-opacity="0.596" d="M 773.36,229.05 c -0.37,0.57 -0.91,0.89 -1.61,0.97 c 0.33,-0.66 0.86,-0.98 1.61,-0.97 Z M 278.99,239.67 c 0.03,0.75 -0.28,1.29 -0.95,1.61 c -0.02,-0.74 0.29,-1.28 0.95,-1.61 Z"/></g>
<g><path fill="#5e5e5e" fill-opacity="0.51" stroke="#5e5e5e" stroke-width="0.5" stroke-opacity="0.51" d="M 147.03,96.74 c 0.59,0.33 0.92,0.83 1,1.51 c -0.64,-0.3 -0.97,-0.8 -1,-1.51 Z M 612.9,210.73 c 0.69,0.31 1.08,0.85 1.15,1.62 c -0.65,-0.34 -1.03,-0.88 -1.15,-1.62 Z"/></g>
<g><path fill="#616161" fill-opacity="0.475" stroke="#616161" stroke-width="0.5" stroke-opacity="0.475" d="M 687.94,87.66 c 0.05,0.76 -0.26,1.31 -0.93,1.64 c -0.02,-0.74 0.29,-1.28 0.93,-1.64 Z M 749.98,149.64 c 0.03,0.77 -0.32,1.29 -1.03,1.56 c 0.03,-0.73 0.38,-1.25 1.03,-1.56 Z"/></g>
<g><path fill="#5b5b5b" fill-opacity="0.678" d="M 646.28,133.06 c -0.39,0.46 -0.81,0.87 -1.28,1.24 c 0.16,-0.68 0.59,-1.1 1.28,-1.24 Z M 238.13,144.57 c 0.54,0.43 0.82,0.99 0.84,1.69 c -0.67,-0.37 -0.95,-0.93 -0.84,-1.69 Z"/></g>
<g><path fill="#6d6d6d" fill-opacity="0.365" stroke="#6d6d6d" stroke-width="0.5" stroke-opacity="0.365" d="M 575.61,221.99 c 0.77,0.02 1.35,0.35 1.76,1 c -0.74,-0.08 -1.33,-0.41 -1.76,-1 Z M 891.7,227.02 c 0.74,0.02 1.29,0.34 1.66,0.97 c -0.75,0 -1.3,-0.32 -1.66,-0.97 Z"/></g>
<g><path fill="#616161" fill-opacity="0.745" d="M 450.75,126.03 c 0.76,0.01 1.32,0.36 1.66,1.05 c -0.78,-0.01 -1.33,-0.36 -1.66,-1.05 Z"/></g>
<g><path fill="#5c5c5c" fill-opacity="0.671" d="M 258.96,129.66 c 0.65,0.3 0.97,0.83 0.95,1.58 c -0.58,-0.37 -0.9,-0.89 -0.95,-1.58 Z"/></g>
<g><path fill="#656565" fill-opacity="0.592" d="M 232.08,132.68 c 0.6,0.39 0.89,0.95 0.85,1.67 c -0.61,-0.38 -0.89,-0.94 -0.85,-1.67 Z"/></g>
<g><path fill="#999999" fill-opacity="0.294" stroke="#999999" stroke-width="0.5" stroke-opacity="0.294" d="M 644,123.65 c 1,0.58 0.98,1.16 -0.07,1.72 c 0.03,-0.57 0.05,-1.14 0.07,-1.72 Z"/></g>
<g><path fill="#5d5d5d" fill-opacity="0.573" d="M 486.94,133.73 c 0.67,0.31 1.01,0.84 1.03,1.61 c -0.67,-0.32 -1.01,-0.86 -1.03,-1.61 Z"/></g>
<g><path fill="#6a6a6a" fill-opacity="0.404" stroke="#6a6a6a" stroke-width="0.5" stroke-opacity="0.404" d="M 74.94,136.73 c 0.02,0.69 -0.27,1.2 -0.88,1.52 c -0.03,-0.7 0.26,-1.21 0.88,-1.52 Z"/></g>
<g><path fill="#5c5c5c" fill-opacity="0.812" d="M 446.69,124.03 c 0.75,-0.03 1.24,0.29 1.48,0.97 c -0.68,-0.05 -1.17,-0.38 -1.48,-0.97 Z"/></g>
<g><path fill="#666666" fill-opacity="0.451" stroke="#666666" stroke-width="0.5" stroke-opacity="0.451" d="M 428.31,124.05 c -0.37,0.65 -0.93,0.94 -1.68,0.89 c 0.39,-0.6 0.95,-0.89 1.68,-0.89 Z"/></g>
<g><path fill="#616161" fill-opacity="0.698" d="M 69.96,147.73 c -0.02,0.71 -0.32,1.24 -0.9,1.59 c -0.03,-0.72 0.27,-1.25 0.9,-1.59 Z"/></g>
<g><path fill="#666666" fill-opacity="0.639" d="M 434.26,123.01 c -0.29,0.63 -0.79,1 -1.49,1.11 c 0.26,-0.68 0.76,-1.04 1.49,-1.11 Z"/></g>
<g><path fill="#616161" fill-opacity="0.443" stroke="#616161" stroke-width="0.5" stroke-opacity="0.443" d="M 631.97,158.77 c 0.01,0.72 -0.3,1.23 -0.92,1.52 c 0.09,-0.64 0.4,-1.15 0.92,-1.52 Z"/></g>
<g><path fill="#616161" fill-opacity="0.455" stroke="#616161" stroke-width="0.5" stroke-opacity="0.455" d="M 671.85,158.74 c 0.56,0.33 1.04,0.75 1.45,1.26 c -0.69,-0.18 -1.17,-0.61 -1.45,-1.26 Z"/></g>
<g><path fill="#626262" fill-opacity="0.427" stroke="#626262" stroke-width="0.5" stroke-opacity="0.427" d="M 82.94,118.63 c 0.02,0.74 -0.3,1.28 -0.95,1.62 c 0,-0.73 0.32,-1.27 0.95,-1.62 Z"/></g>
<g><path fill="#5c5c5c" fill-opacity="0.522" stroke="#5c5c5c" stroke-width="0.5" stroke-opacity="0.522" d="M 313.94,169.67 c 0,0.73 -0.31,1.25 -0.92,1.57 c 0.01,-0.7 0.31,-1.22 0.92,-1.57 Z"/></g>
<g><path fill="#676767" fill-opacity="0.467" stroke="#676767" stroke-width="0.5" stroke-opacity="0.467" d="M 853.05,170.62 c 0.62,0.36 0.94,0.9 0.94,1.63 c -0.7,-0.31 -1.01,-0.86 -0.94,-1.63 Z"/></g>
<g><path fill="#606060" fill-opacity="0.502" stroke="#606060" stroke-width="0.5" stroke-opacity="0.502" d="M 480.04,117.65 c 0.67,0.33 1.04,0.88 1.09,1.63 c -0.75,-0.28 -1.11,-0.83 -1.09,-1.63 Z"/></g>
<g><path fill="#686868" fill-opacity="0.412" stroke="#686868" stroke-width="0.5" stroke-opacity="0.412" d="M 311.73,117.02 c 0.72,0 1.25,0.3 1.61,0.92 c -0.73,0.02 -1.27,-0.28 -1.61,-0.92 Z"/></g>
<g><path fill="#5e5e5e" fill-opacity="0.647" d="M 696,185.68 c 0.69,0.3 0.99,0.83 0.91,1.6 c -0.62,-0.35 -0.92,-0.88 -0.91,-1.6 Z"/></g>
<g><path fill="#727272" fill-opacity="0.42" stroke="#727272" stroke-width="0.5" stroke-opacity="0.42" d="M 51.95,189.68 c 0,0.71 -0.29,1.25 -0.89,1.62 c 0.08,-0.66 0.38,-1.2 0.89,-1.62 Z"/></g>
<g><path fill="#5f5f5f" fill-opacity="0.525" d="M 50.98,192.65 c -0.07,0.73 -0.4,1.3 -0.99,1.71 c 0.05,-0.74 0.38,-1.31 0.99,-1.71 Z"/></g>
<g><path fill="#5b5b5b" fill-opacity="0.569" d="M 290.03,193.58 c 0.55,0.44 0.84,1.03 0.88,1.75 c -0.61,-0.42 -0.9,-1 -0.88,-1.75 Z"/></g>
<g><path fill="#6c6c6c" fill-opacity="0.435" stroke="#6c6c6c" stroke-width="0.5" stroke-opacity="0.435" d="M 50,197.77 c -0.05,0.71 -0.38,1.24 -0.98,1.58 c 0.06,-0.7 0.39,-1.22 0.98,-1.58 Z"/></g>
<g><path fill="#656565" fill-opacity="0.467" stroke="#656565" stroke-width="0.5" stroke-opacity="0.467" d="M 292.04,197.62 c 0.54,0.39 0.86,0.91 0.97,1.57 c -0.67,-0.3 -0.99,-0.82 -0.97,-1.57 Z"/></g>
<g><path fill="#666666" fill-opacity="0.498" stroke="#666666" stroke-width="0.5" stroke-opacity="0.498" d="M 200.99,205.65 c 0.68,0.36 1.05,0.94 1.11,1.72 c -0.65,-0.39 -1.02,-0.97 -1.11,-1.72 Z"/></g>
<g><path fill="#686868" fill-opacity="0.424" stroke="#686868" stroke-width="0.5" stroke-opacity="0.424" d="M 299.9,205.62 c 0.07,0.76 -0.23,1.32 -0.89,1.67 c -0.01,-0.72 0.29,-1.28 0.89,-1.67 Z"/></g>
<g><path fill="#606060" fill-opacity="0.584" d="M 269.97,209.66 c 0.66,0.33 1,0.86 1.01,1.6 c -0.64,-0.34 -0.97,-0.87 -1.01,-1.6 Z"/></g>
<g><path fill="#696969" fill-opacity="0.392" stroke="#696969" stroke-width="0.5" stroke-opacity="0.392" d="M 421.24,126.96 c -0.33,0.67 -0.87,1 -1.63,1.01 c 0.36,-0.64 0.9,-0.97 1.63,-1.01 Z"/></g>
<g><path fill="#6e6e6e" fill-opacity="0.475" stroke="#6e6e6e" stroke-width="0.5" stroke-opacity="0.475" d="M 168.09,211.7 c 0.62,0.38 0.93,0.94 0.91,1.68 c -0.58,-0.39 -0.88,-0.95 -0.91,-1.68 Z"/></g>
<g><path fill="#636363" fill-opacity="0.455" stroke="#636363" stroke-width="0.5" stroke-opacity="0.455" d="M 538.94,214.76 c 0.03,0.74 -0.29,1.26 -0.96,1.56 c 0,-0.73 0.32,-1.25 0.96,-1.56 Z"/></g>
<g><path fill="#5c5c5c" fill-opacity="0.498" d="M 849.87,98.72 c -0.01,0.72 -0.32,1.24 -0.94,1.54 c 0,-0.71 0.31,-1.23 0.94,-1.54 Z"/></g>
<g><path fill="#6b6b6b" fill-opacity="0.486" stroke="#6b6b6b" stroke-width="0.5" stroke-opacity="0.486" d="M 725.79,216 c 0.72,0.08 1.26,0.44 1.6,1.08 c -0.79,0.02 -1.33,-0.34 -1.6,-1.08 Z"/></g>
<g><path fill="#636363" fill-opacity="0.486" stroke="#636363" stroke-width="0.5" stroke-opacity="0.486" d="M 114.99,97.6 c 0.64,0.34 0.99,0.88 1.03,1.62 c -0.7,-0.31 -1.05,-0.85 -1.03,-1.62 Z"/></g>
<g><path fill="#707070" fill-opacity="0.365" stroke="#707070" stroke-width="0.5" stroke-opacity="0.365" d="M 56.62,218.82 c 0.77,0.09 1.31,0.48 1.62,1.17 c -0.76,-0.08 -1.3,-0.48 -1.62,-1.17 Z"/></g>
<g><path fill="#5b5b5b" fill-opacity="0.537" d="M 293.88,220.69 c 0.09,0.72 -0.2,1.24 -0.85,1.55 c -0.05,-0.71 0.23,-1.23 0.85,-1.55 Z"/></g>
<g><path fill="#6d6d6d" fill-opacity="0.412" stroke="#6d6d6d" stroke-width="0.5" stroke-opacity="0.412" d="M 495.65,221.07 c 0.74,-0.06 1.26,0.25 1.58,0.91 c -0.71,0 -1.24,-0.3 -1.58,-0.91 Z"/></g>
<g><path fill="#616161" fill-opacity="0.608" d="M 648.98,74.6 c 0.58,0.38 0.92,0.93 1,1.65 c -0.7,-0.31 -1.04,-0.86 -1,-1.65 Z"/></g>
<g><path fill="#5b5b5b" fill-opacity="0.482" stroke="#5b5b5b" stroke-width="0.5" stroke-opacity="0.482" d="M 537.92,48.69 c 0.07,0.73 -0.22,1.26 -0.87,1.59 c -0.06,-0.73 0.23,-1.26 0.87,-1.59 Z"/></g>
<g><path fill="#5b5b5b" fill-opacity="0.439" stroke="#5b5b5b" stroke-width="0.5" stroke-opacity="0.439" d="M 866.26,46.85 c -0.31,0.75 -0.87,1.11 -1.68,1.09 c 0.42,-0.58 0.98,-0.94 1.68,-1.09 Z"/></g>
<g><path fill="#5a5a5a" fill-opacity="0.498" d="M 291.98,225.62 c 0.01,0.76 -0.3,1.33 -0.94,1.73 c -0.02,-0.77 0.29,-1.35 0.94,-1.73 Z"/></g>
<g><path fill="#5d5d5d" fill-opacity="0.659" d="M 956.67,46.02 c 0.76,-0.03 1.31,0.29 1.64,0.96 c -0.74,-0.01 -1.28,-0.33 -1.64,-0.96 Z"/></g>
<g><path fill="#6a6a6a" fill-opacity="0.435" stroke="#6a6a6a" stroke-width="0.5" stroke-opacity="0.435" d="M 742.68,227.03 c 0.76,-0.02 1.29,0.31 1.61,0.99 c -0.73,-0.03 -1.26,-0.36 -1.61,-0.99 Z"/></g>
<g><path fill="#5c5c5c" fill-opacity="0.553" d="M 902.7,229.07 c 0.68,0.07 1.21,0.38 1.59,0.94 c -0.64,-0.12 -1.17,-0.43 -1.59,-0.94 Z"/></g>
<g><path fill="#636363" fill-opacity="0.584" d="M 935.61,40.01 c 0.72,0.12 1.28,0.47 1.69,1.07 c -0.73,-0.09 -1.3,-0.45 -1.69,-1.07 Z"/></g>
<g><path fill="#5c5c5c" fill-opacity="0.51" stroke="#5c5c5c" stroke-width="0.5" stroke-opacity="0.51" d="M 284.96,243.65 c 0.04,0.74 -0.25,1.32 -0.86,1.72 c -0.09,-0.77 0.2,-1.34 0.86,-1.72 Z"/></g>
<g><path fill="#5f5f5f" fill-opacity="0.537" stroke="#5f5f5f" stroke-width="0.5" stroke-opacity="0.537" d="M 282.95,248.71 c 0.03,0.73 -0.27,1.28 -0.88,1.65 c -0.02,-0.72 0.27,-1.27 0.88,-1.65 Z"/></g>
<g><path fill="#5a5a5a" fill-opacity="0.51" stroke="#5a5a5a" stroke-width="0.5" stroke-opacity="0.51" d="M 266.17,283.75 c -0.1,0.74 -0.48,1.24 -1.16,1.52 c 0.02,-0.79 0.4,-1.3 1.16,-1.52 Z"/></g>
<g><path fill="#6b6b6b" fill-opacity="0.384" stroke="#6b6b6b" stroke-width="0.5" stroke-opacity="0.384" d="M 70.98,145.67 c 0,0.72 -0.29,1.27 -0.87,1.66 c -0.05,-0.74 0.24,-1.29 0.87,-1.66 Z"/></g>
<g><path fill="#5b5b5b" fill-opacity="0.616" d="M 238.78,291.03 c 0.66,0.09 1.19,0.4 1.58,0.93 c -0.75,0.05 -1.28,-0.26 -1.58,-0.93 Z"/></g>
<g><path fill="#6b6b6b" fill-opacity="0.373" stroke="#6b6b6b" stroke-width="0.5" stroke-opacity="0.373" d="M 256.02,296.57 c -0.21,0.74 -0.68,1.21 -1.43,1.42 c 0.43,-0.52 0.91,-0.99 1.43,-1.42 Z"/></g>
<g><path fill="#6b6b6b" fill-opacity="0.467" stroke="#6b6b6b" stroke-width="0.5" stroke-opacity="0.467" d="M 253.88,298.65 c -0.13,0.71 -0.54,1.17 -1.23,1.39 c 0.36,-0.51 0.77,-0.98 1.23,-1.39 Z"/></g>
<g><path fill="#606060" fill-opacity="0.553" d="M 848.94,102.72 c -0.08,0.71 -0.41,1.25 -1,1.63 c 0.12,-0.68 0.45,-1.22 1,-1.63 Z"/></g>
<g><path fill="#000000" stroke="#000000" stroke-width="0.5" d="M 689.8,33.04 c 0.33,0.61 0.85,0.92 1.56,0.93 c 15.19,2.91 25.67,14.81 25.37,30.54 c -1.63,20.35 -15.15,30.61 -30.32,41.53 c -0.82,-0.04 -1.38,0.31 -1.69,1.06 c -0.49,0.3 -0.99,0.59 -1.49,0.86 c -0.73,0.06 -1.24,0.42 -1.54,1.08 c -3.01,2.08 -6.07,4.07 -9.19,5.94 c -0.42,0.68 -0.46,1.38 -0.13,2.11 c 4.32,5.39 8.54,10.87 12.65,16.43 c 8.09,9.19 15.58,19.19 24.02,28.15 c 0.17,0.69 0.59,1.15 1.26,1.38 c 0.57,0.8 1.14,1.63 1.71,2.48 c 2.08,2.02 4.09,4.1 6.03,6.24 c 0.05,0.68 0.4,1.12 1.05,1.3 c 0.04,0.64 0.37,1.09 0.97,1.34 c 1.73,1.98 3.6,3.81 5.61,5.49 c 0.5,0.2 0.95,0.14 1.36,-0.21 c 6.45,-12.22 17.09,-38.64 6.35,-50.39 c -4.99,-3.42 -7.62,-4.98 -14.12,-5.43 c -1.03,-0.79 -2.21,-1.1 -3.53,-0.94 c -0.28,-0.07 -0.55,-0.13 -0.83,-0.2 c 0.14,-0.83 0.35,-2.62 -0.85,-2.74 c 0.21,-0.69 0.68,-1.02 1.43,-0.99 c 2.49,0 4.99,0 7.48,0.01 c 0.01,1.18 1.63,0.99 2.41,0.95 c 9.75,-0.42 41.98,1.05 49.1,-0.87 c 2.02,-0.1 4.03,-0.14 6.05,-0.1 c 1.36,0.26 1.86,1.1 1.51,2.52 c -0.07,1.09 -0.66,1.58 -1.75,1.48 c -0.78,-0.01 -2.24,-0.19 -2.42,0.87 c -1.18,0.14 -2.37,0.2 -3.56,0.17 c -0.7,-0.04 -1.15,0.27 -1.33,0.93 c -13.15,3.92 -17.97,12.86 -22.99,24.68 c -0.65,0.31 -1,0.83 -1.03,1.56 c -2.31,6.19 -5.01,12.54 -8.03,18.4 c -0.62,0.38 -0.85,0.93 -0.7,1.64 c -2.27,4.24 -4.66,8.42 -7.16,12.53 c -0.68,0.25 -1,0.75 -0.98,1.48 c -0.35,2.34 10.49,11.42 12.52,13.58 c 0.33,0.72 0.89,1.08 1.68,1.1 c 1.26,1.17 2.52,2.34 3.78,3.53 c 1.76,0.94 3.31,2.08 4.66,3.4 c 0.29,0.74 0.84,1.1 1.63,1.06 c 2.69,2.31 15.01,8.67 17.67,9.11 c 0.17,0.72 0.63,1.04 1.4,0.96 c 4.42,0.26 8.33,1.82 13.47,0.78 c 0.62,0.13 0.97,-0.12 1.08,-0.73 c 1.32,0.38 2.36,2.71 1.53,3.98 c -1.78,1.26 -4.01,2.79 -6.23,2.95 c -0.71,0.09 -1.25,0.44 -1.61,1.06 c -0.98,0.75 -2.1,1.08 -3.35,0.99 c -0.67,0.03 -1.22,0.31 -1.63,0.84 c -1.93,0.54 -3.19,1.37 -5.32,1.19 c -0.75,-0.01 -1.28,0.31 -1.61,0.97 c -1.14,0 -2.29,-0.01 -3.43,-0.03 c -0.7,0.02 -1.2,0.34 -1.5,0.96 c -3.54,-0.01 -7.07,0.04 -10.61,0.16 c -0.26,-0.66 -0.74,-1.03 -1.45,-1.11 c -1.16,0.02 -2.32,-0.01 -3.48,-0.09 c -0.38,-0.62 -0.95,-0.92 -1.69,-0.87 c -0.74,-0.04 -1.49,-0.08 -2.24,-0.11 c -0.33,-0.64 -0.86,-0.96 -1.58,-0.96 c -0.5,0.04 -0.99,0.05 -1.48,0.05 c -0.32,-0.68 -0.85,-1.01 -1.61,-0.99 c -2.47,-1.28 -4.95,-2.57 -7.44,-3.88 c -0.3,-0.72 -0.85,-1.07 -1.64,-1.05 c -2.19,-1.51 -4.26,-3.18 -6.21,-5.02 c -0.34,-0.64 -0.88,-1 -1.6,-1.08 c -2.73,-1.54 -7.73,-8.88 -10.57,-9 c -0.68,0.19 -1.04,0.63 -1.09,1.34 c -0.24,0.32 -0.52,0.6 -0.83,0.85 c -0.68,-0.07 -1.08,0.23 -1.18,0.9 c -0.55,0.07 -0.96,0.34 -1.23,0.82 c -0.52,0.28 -0.93,0.67 -1.23,1.17 c -2.15,2.35 -6.2,4.91 -8.31,6.93 c -0.8,-0.02 -1.37,0.33 -1.73,1.03 c -1.87,0.82 -7.79,5.05 -9.32,4.92 c -0.74,0.02 -1.25,0.36 -1.54,1.03 c -1.04,0.74 -2.2,1.06 -3.48,0.95 c -0.75,0.05 -1.3,0.4 -1.66,1.05 c -0.41,0.04 -0.82,0.05 -1.24,0.02 c -0.74,-0.04 -1.29,0.26 -1.63,0.91 c -1.15,0.08 -2.3,0.12 -3.46,0.11 c -0.7,-0.03 -1.14,0.29 -1.31,0.95 c -0.91,0.03 -1.82,0.04 -2.72,0.04 c -0.69,0.04 -1.18,0.38 -1.45,1.01 c -3.19,-0.02 -6.37,-0.04 -9.55,-0.04 c -1.16,0.02 -2.32,0.05 -3.49,0.08 c -3.19,-0.04 -6.39,-0.09 -9.59,-0.16 c -0.35,-0.59 -0.88,-0.89 -1.59,-0.9 c -2.31,0.44 -7.78,-1.9 -10.35,-2.07 c -0.25,-0.67 -0.74,-0.98 -1.47,-0.94 c -3.28,-0.61 -7.39,-3.49 -10.53,-4.93 c -0.28,-0.71 -0.79,-1.05 -1.56,-1.03 c -0.71,-0.78 -1.49,-1.4 -2.33,-1.86 c -0.35,-0.69 -0.91,-1.1 -1.67,-1.23 c -2,-1.72 -3.88,-3.59 -5.63,-5.6 c -0.07,-0.77 -0.46,-1.31 -1.15,-1.62 c -1.23,-1.26 -2.19,-2.7 -2.87,-4.32 c -0.04,-0.72 -0.35,-1.29 -0.92,-1.71 c -1.28,-2.07 -3.16,-5.91 -3.13,-8.32 c 0.05,-0.73 -0.24,-1.26 -0.87,-1.59 c -0.03,-1.83 -0.39,-3.59 -1.08,-5.27 c -0.68,-12.87 0.4,-21.15 6.54,-32.55 c 6.22,-10.04 12.38,-15.78 21.17,-22.97 c 0.77,-0.05 1.32,-0.42 1.66,-1.11 c 3.38,-2.69 6.89,-5.2 10.53,-7.52 c 1.05,-0.56 1.07,-1.14 0.07,-1.72 c -1.89,-5.38 -9.43,-13.62 -11.01,-19.36 c 0.03,-0.76 -0.3,-1.3 -0.99,-1.62 c -0.74,-1.72 -1.41,-3.48 -2.01,-5.28 c 0.04,-0.75 -0.26,-1.33 -0.89,-1.72 c -0.09,-0.87 -0.21,-1.72 -0.39,-2.57 c 0.21,-0.64 -0.02,-1 -0.67,-1.08 c -0.03,-0.99 -0.11,-1.97 -0.24,-2.95 c 0.2,-0.72 0.37,-2.19 -0.8,-2.11 c 0.02,-2.19 -0.28,-4.34 -0.9,-6.45 c -0.47,-16.53 6.45,-33.54 21.64,-41.54 c 0.73,0.03 1.26,-0.27 1.59,-0.92 c 1.31,-1.01 2.77,-1.69 4.38,-2.05 c 0.73,-0.01 1.29,-0.32 1.69,-0.93 c 3.39,-0.87 6.76,-1.88 10.1,-3.03 c 8.28,0.27 16.24,-0.97 24.3,1 Z M 921.04,32.97 c 4.3,0.03 8.6,0.04 12.9,0.02 c 0.14,1.08 1.58,1.01 2.38,0.97 c 3.4,0.04 6.79,0.06 10.19,0.05 c 2.59,0.93 5.27,1.3 8.04,1.13 c 2.84,0.36 15.37,3.59 18.14,3.91 c 0.34,0.62 0.86,0.95 1.58,0.99 c 3.27,-0.14 9.34,3.48 13.04,4.07 c 1.81,0.92 3.63,1.78 5.47,2.59 c 0.87,5.22 1.5,9.63 1.23,15 c -0.14,1.02 0.14,1.88 0.84,2.57 c 0.15,1.76 0.21,3.53 0.17,5.3 c 0.03,0.76 0.38,1.31 1.05,1.66 c -0.59,5.96 1.25,12.34 1.22,18.36 c -0.04,1.85 -2.45,1.54 -3.62,1.25 c -1.15,-1.3 -1.72,-2.83 -1.72,-4.59 c 0.04,-0.71 -0.28,-1.21 -0.94,-1.48 c -0.85,-3.38 -2.22,-6.54 -4.1,-9.47 c -0.05,-0.73 -0.4,-1.25 -1.06,-1.57 c -3.12,-5.95 -11.17,-16.08 -16.88,-19.31 c -0.16,-0.72 -0.58,-1.19 -1.29,-1.41 c -1.83,-1.42 -3.73,-2.74 -5.7,-3.96 c -0.09,-0.67 -0.46,-0.91 -1.11,-0.73 c -0.21,-0.11 -0.41,-0.21 -0.62,-0.32 c -0.28,-0.69 -0.79,-1.02 -1.55,-1 c -0.13,-0.01 -0.26,-0.01 -0.39,-0.02 c -0.33,-0.67 -0.88,-0.99 -1.64,-0.96 c -0.88,-0.13 -1.69,-0.46 -2.41,-0.99 c -0.23,-0.64 -0.68,-0.91 -1.35,-0.8 c -0.56,-0.09 -1.11,-0.18 -1.67,-0.28 c -0.29,-0.63 -0.79,-0.93 -1.49,-0.92 c -0.49,-0.04 -0.98,-0.08 -1.47,-0.12 c -0.45,-0.51 -1.01,-0.82 -1.68,-0.95 c -0.79,0.03 -1.58,0.06 -2.37,0.08 c -0.34,-0.58 -0.84,-0.94 -1.5,-1.08 c -1.81,0.03 -3.62,0.07 -5.43,0.12 c -0.41,-0.6 -0.97,-0.95 -1.69,-1.07 c -1.52,0.01 -3.04,-0.01 -4.56,-0.06 c -0.58,-1.36 -3.08,-0.84 -4.28,-1.08 c -1.51,0.29 -3.02,0.3 -4.54,0.04 c -1.39,0.18 -3.52,-0.29 -4.49,0.96 c -4.37,-0.29 -8,1.73 -12.42,1.15 c -0.73,0.02 -1.3,0.33 -1.71,0.93 c -0.75,0.02 -1.5,0.04 -2.25,0.07 c -0.73,-0.05 -1.19,0.27 -1.36,0.97 c -0.55,0.02 -1.1,0.03 -1.65,0.04 c -0.73,-0.06 -1.18,0.26 -1.34,0.94 c -2.58,0.92 -5.14,1.93 -7.69,3 c -0.76,0.02 -1.31,0.36 -1.65,1.04 c -2.9,1.33 -5.82,2.92 -8.33,4.97 c -0.81,0 -1.35,0.38 -1.63,1.13 c -1.87,1.55 -3.63,3.19 -5.3,4.94 c -0.76,0.11 -1.26,0.52 -1.5,1.26 c -6.08,6.86 -11.89,14.01 -15.64,22.44 c -0.39,1.98 -2.38,4.4 -2.32,6.27 c -0.61,0.1 -0.85,0.46 -0.7,1.07 c -0.74,2.74 -2.41,5.75 -2.38,8.63 c -0.63,0.31 -0.94,0.83 -0.94,1.54 c 0.22,0.83 0.22,1.65 0.01,2.46 c -0.55,0.41 -0.88,0.95 -1,1.63 c 0.33,2.14 0.06,4.2 -0.8,6.17 c -1.75,10.2 -1.19,19.62 -1,30.02 c 0.4,3.57 2.22,10.75 1.91,14.22 c -0.19,1.01 0.12,1.76 0.95,2.27 c 0.76,4.68 2.78,9.09 4.05,13.59 c -0.07,0.77 0.24,1.32 0.94,1.63 c 0.04,0.6 0.2,1.17 0.46,1.71 c 6.83,15.76 19.13,31.46 34.23,39.89 c 0.27,0.74 0.79,1.12 1.57,1.16 c 2.73,1.53 5.56,2.85 8.47,3.93 c 0.23,0.68 0.69,0.95 1.38,0.83 c 1.59,0.25 3.13,0.65 4.62,1.23 c 0.3,0.69 0.83,1.04 1.61,1.04 c 0.71,-0.03 1.42,-0.02 2.13,0.01 c 14.24,4.64 35.48,4.02 49.13,-2.17 c 0.8,0.12 1.39,-0.16 1.79,-0.84 c 1.41,-0.77 2.87,-1.44 4.38,-2.01 c 0.69,-0.08 1.23,-0.41 1.62,-0.98 c 1.33,-1.22 2.76,-2.28 4.31,-3.18 c 0.77,0.01 1.3,-0.33 1.6,-1.04 c 12.56,-11.09 17.87,-20.17 24.68,-35.28 c 2.71,-1 3.98,-0.07 3.81,2.8 c -1.33,2.22 -0.56,5.86 -0.79,8.38 c -0.66,0.27 -0.99,0.77 -0.99,1.49 c 0.22,7.86 -2.27,15.84 -1.89,23.49 c -0.69,0.33 -1.06,0.88 -1.09,1.66 c 0.33,3.63 -1.57,2.84 -3.62,4.78 c -0.73,-0.05 -1.33,0.22 -1.77,0.8 c -2.67,1.29 -5.45,2.3 -8.33,3.05 c -0.72,0.05 -1.26,0.37 -1.62,0.99 c -0.48,-0.01 -0.96,-0.01 -1.44,-0.02 c -0.69,0.01 -1.2,0.32 -1.51,0.94 c -3.12,0.17 -6.42,2.64 -9.5,2.04 c -0.64,0.1 -1.14,0.42 -1.49,0.96 c -1.13,0.09 -2.25,0.13 -3.38,0.13 c -0.76,-0.01 -1.34,0.3 -1.73,0.94 c -3.75,0.41 -7.51,0.74 -11.27,1 c -0.77,0 -1.28,0.34 -1.52,1.03 c -4.52,-0.02 -9.05,-0.01 -13.58,0.03 c -3.55,0.04 -7.1,0.03 -10.65,-0.05 c -3.19,0.01 -6.38,0.01 -9.58,0.01 c -0.76,-1.45 -2.93,-0.95 -4.27,-1.01 c -1.82,0.03 -3.65,0.04 -5.47,0.02 c -0.38,-0.56 -0.91,-0.87 -1.59,-0.94 c -1.47,-0.03 -2.94,-0.08 -4.4,-0.14 c -0.35,-0.63 -0.89,-0.93 -1.61,-0.92 c -1.11,-0.01 -2.22,-0.02 -3.33,-0.02 c -0.37,-0.63 -0.92,-0.95 -1.66,-0.97 c -2.46,0.32 -3.43,-0.55 -5.43,-1.02 c -0.34,-0.64 -0.88,-0.97 -1.61,-0.97 c -1.52,-0.06 -2.96,-0.41 -4.33,-1.05 c -0.37,-0.67 -0.94,-1 -1.72,-0.98 c -0.45,-0.03 -0.9,-0.05 -1.35,-0.06 c -0.32,-0.6 -0.83,-0.89 -1.51,-0.85 c -2.46,-1.03 -4.93,-2.03 -7.42,-3 c -0.33,-0.72 -0.9,-1.08 -1.7,-1.09 c -1.43,-0.09 -5.43,-3.21 -7.31,-3.84 c -0.29,-0.71 -0.83,-1.09 -1.6,-1.11 c -0.45,-0.35 -0.92,-0.65 -1.42,-0.92 c -0.31,-0.75 -0.88,-1.1 -1.71,-1.02 c -0.35,-0.42 -0.78,-0.74 -1.28,-0.96 c -0.31,-0.7 -0.84,-1.08 -1.6,-1.15 c -0.78,-0.66 -1.59,-1.29 -2.42,-1.89 c -0.3,-0.63 -0.8,-0.93 -1.5,-0.89 c -2.46,-2.45 -4.94,-4.85 -7.44,-7.21 c -0.4,-0.49 -0.85,-0.92 -1.36,-1.3 c -4.19,-4.19 -7.6,-8.4 -11.05,-13.29 c 0.03,-0.72 -0.25,-1.28 -0.84,-1.67 c -6.89,-9.55 -13.19,-26.85 -13.11,-38.35 c -0.06,-0.69 -0.34,-1.26 -0.87,-1.71 c -0.33,-6.01 -0.3,-24.76 1.7,-29.31 c 4.45,-25.38 21.31,-47.85 42.83,-61.47 c 0.77,-0.02 1.3,-0.38 1.59,-1.09 c 1.83,-0.86 3.61,-1.82 5.34,-2.88 c 0.81,0.02 1.37,-0.34 1.68,-1.09 c 4.26,-1.77 8.49,-3.59 12.69,-5.46 c 13.79,-4.47 25.36,-7.44 39.95,-7.63 c 0.7,0.19 2.12,0.28 2.14,-0.79 Z M 112.77,34.99 c 0.26,1.65 3.44,0.83 4.57,0.96 c 1.01,0.64 1.56,1.56 1.66,2.77 c 0.01,0.7 0.32,1.2 0.93,1.52 c 0.73,1.48 1.42,2.99 2.06,4.52 c 0.06,0.69 0.38,1.21 0.96,1.57 c 1.52,4.13 8.24,16.25 9.06,19.43 c 0.07,0.72 0.45,1.21 1.13,1.47 c 0,1 0.35,1.84 1.08,2.54 c -0.17,0.69 0.08,1.11 0.76,1.25 c 0.09,0.98 0.44,1.86 1.07,2.63 c -0.06,0.73 0.22,1.26 0.84,1.62 c 3.27,7.21 6.65,14.37 10.14,21.47 c 0.03,0.71 0.36,1.21 1,1.51 c 0.13,0.91 0.47,1.74 1.01,2.48 c -0.05,0.74 0.25,1.29 0.9,1.64 c 1.67,4.46 4.77,8.91 6.02,13.37 c 0.04,0.72 0.39,1.22 1.06,1.5 c 0.53,0.71 0.86,1.51 1.01,2.38 c -0.04,0.82 0.33,1.35 1.1,1.6 c 0.06,0.22 0.13,0.45 0.19,0.67 c -0.15,0.6 0.08,0.97 0.66,1.11 c 0.02,0.23 0.04,0.47 0.06,0.71 c 0.01,0.68 0.31,1.19 0.9,1.52 c 0.02,0.19 0.05,0.37 0.07,0.56 c 0.03,0.67 0.34,1.16 0.93,1.48 c 3.43,7.13 6.79,14.29 10.07,21.48 c 0.01,0.77 0.36,1.31 1.05,1.64 c 1.48,3.14 13.07,26.03 12.93,27.27 c -0.02,0.66 0.24,1.14 0.8,1.47 c 0.05,0.18 0.1,0.37 0.16,0.55 c 0,0.7 0.31,1.19 0.93,1.47 c 0.02,0.18 0.04,0.36 0.06,0.54 c 0.12,0.73 0.52,1.25 1.18,1.57 c 0.39,0.74 0.72,1.52 0.99,2.32 c -0.08,0.79 0.22,1.37 0.91,1.75 c 0.6,1.47 1.27,2.91 2.01,4.31 c -0.05,0.69 0.22,1.22 0.8,1.57 c 0.05,0.19 0.1,0.39 0.15,0.58 c 0.04,0.69 0.38,1.16 1.01,1.4 c 0.03,0.2 0.05,0.4 0.08,0.6 c 0.07,0.74 0.45,1.27 1.13,1.59 c -0.13,0.24 -0.27,0.48 -0.41,0.73 c 0.23,0.6 0.66,1 1.29,1.17 c 0.68,1.09 1.3,2.19 1.87,3.33 c 0.07,0.82 0.48,1.41 1.22,1.77 c 0.25,0.44 0.52,0.86 0.82,1.27 c 0.09,0.75 0.46,1.33 1.11,1.72 c 4.57,6.37 7.7,9.9 14.9,13.61 c 0.17,0.72 0.64,1.04 1.41,0.94 c 0.85,0.02 1.71,0.05 2.57,0.1 c 0.17,0.64 0.59,0.95 1.26,0.94 c 0.78,0.13 3.57,-0.33 3.74,0.67 c 0.07,1.14 -0.03,2.25 -0.31,3.35 c -6.49,0.11 -12.96,0.03 -19.42,-0.23 c -1.22,-1.09 -4.08,-0.69 -5.63,-0.75 c -7.46,0.04 -14.91,0 -22.35,-0.12 c -1.45,0.34 -5.76,-0.45 -6.44,1.04 c -6.4,0.13 -12.8,0.11 -19.2,-0.06 c -0.99,-0.72 -0.98,-2.96 0,-3.72 c 2.01,-0.16 4.03,-0.2 6.05,-0.13 c 0.69,-0.1 1.2,-0.46 1.53,-1.07 c 5.34,0.34 8.89,-3.18 8.79,-8.56 c 0.02,-0.74 -0.29,-1.3 -0.91,-1.68 c -0.55,-2.5 -1.25,-4.96 -2.11,-7.35 c 0,-0.76 -0.31,-1.34 -0.93,-1.75 c -1.71,-3.76 -3.41,-7.51 -5.09,-11.25 c -0.01,-0.76 -0.34,-1.33 -0.97,-1.72 c -4.67,-9.77 -9.37,-19.51 -14.08,-29.21 c 0.02,-0.76 -0.28,-1.36 -0.9,-1.79 c -0.22,-1.41 -1.05,-1.95 -2.49,-1.63 c -25.06,0 -50.11,0 -75.16,0.01 c -0.69,0.08 -1.24,0.4 -1.65,0.95 c 0.13,0.25 0.26,0.49 0.39,0.74 c -0.69,0.33 -1.03,0.88 -1.04,1.65 c -0.04,0.46 -0.09,0.93 -0.13,1.39 c -0.64,0.3 -0.96,0.81 -0.97,1.52 c -0.46,0.77 -0.81,1.59 -1.06,2.46 c -0.63,0.33 -0.91,0.86 -0.86,1.59 c -0.04,0.17 -0.09,0.35 -0.14,0.53 c -0.64,0.3 -0.95,0.8 -0.93,1.52 c -0.58,1.81 -1.24,3.59 -1.97,5.37 c -0.67,0.33 -0.98,0.88 -0.94,1.63 c -1.32,3.46 -2.7,6.89 -4.11,10.3 c -0.61,0.42 -0.94,1 -0.97,1.74 c -0.01,0.43 -0.02,0.85 -0.03,1.28 c -0.51,0.42 -0.81,0.96 -0.89,1.62 c -0.01,0.45 -0.04,0.9 -0.08,1.35 c -0.61,0.4 -0.94,0.97 -0.99,1.71 c 0.02,1.14 0.03,2.27 0.01,3.41 c -0.59,0.36 -0.92,0.88 -0.98,1.58 c -0.12,4.62 -0.24,8 1.01,12.26 c -0.06,0.82 0.29,1.36 1.06,1.62 c 0.33,0.46 0.61,0.96 0.84,1.48 c -0.02,0.74 0.32,1.17 1.03,1.31 c 0.03,0.66 0.37,1.03 1.03,1.1 c 0.25,0.54 0.68,0.82 1.28,0.84 c 0.43,0.33 0.88,0.61 1.35,0.86 c 0.32,0.69 0.86,1.09 1.62,1.17 c 0.13,0.02 0.25,0.03 0.38,0.04 c 0.4,0.63 0.98,0.95 1.73,0.95 c 0.13,0.03 0.25,0.06 0.38,0.09 c 0.34,0.69 0.91,1.01 1.69,0.96 c 0.85,-0.03 1.7,-0.04 2.54,-0.03 c 0.56,0.84 1.37,1.17 2.42,0.98 c 2.33,-0.05 4.65,0.01 6.97,0.19 c 0.96,0.76 1.02,2.97 0.02,3.69 c -5.72,0.23 -11.45,0.19 -17.16,-0.13 c -1.45,-1.19 -5.6,-0.69 -7.45,-0.78 c -5.83,0.11 -11.65,0.09 -17.46,-0.05 c -1.46,0.11 -4.26,-0.28 -5.37,0.81 c -6.1,0.34 -12.2,0.39 -18.3,0.15 c -0.99,-0.72 -0.97,-2.95 0.01,-3.71 c 1.01,-0.16 2.03,-0.24 3.06,-0.22 c 0.68,-0.01 1.19,-0.29 1.55,-0.86 c 8.97,-0.41 18.83,-11.97 22.9,-19.48 c 19.71,-41.26 38.04,-83.53 56.93,-125.31 c 0.66,-0.29 0.98,-0.8 0.97,-1.52 c 1.38,-4.04 3.04,-7.96 4.98,-11.76 c 0.58,-0.16 0.82,-0.55 0.7,-1.16 c 0.42,-1.17 0.88,-2.33 1.37,-3.48 c 0.58,-0.23 0.95,-0.65 1.13,-1.24 c -0.14,-0.3 -0.28,-0.59 -0.42,-0.88 c 0.78,-0.24 1.18,-0.76 1.19,-1.59 c 0.48,-1.51 2.25,-6.41 3.11,-7.26 c 0.6,-0.43 0.89,-1.03 0.89,-1.77 c 1.56,-3.76 2.76,-8.81 5.77,-11.63 Z M 667,38.02 c -5.8,0.5 -10.42,4.12 -13.85,8.65 c -0.68,0.36 -1.07,0.92 -1.15,1.69 c -0.55,0.69 -0.9,1.47 -1.04,2.34 c -0.61,0.33 -0.92,0.84 -0.93,1.54 c -1.39,5.57 -2.06,10.68 -2.03,16.43 c 0.12,0.7 0.45,1.25 1.01,1.66 c 0,1.42 -0.01,2.85 -0.03,4.27 c -0.04,0.79 0.3,1.34 1,1.65 c 0.04,2.99 2.27,6.67 3.07,9.47 c 0,0.69 0.28,1.23 0.84,1.61 c 2.31,5.44 6.02,11.4 9.21,16.26 c -0.05,0.78 0.26,1.35 0.92,1.73 c 0.32,0.69 0.84,1.22 1.55,1.61 c 0.82,1.37 1.18,3.91 3.45,2.54 c 2.12,-2.02 6.38,-5.56 8.81,-7.16 c 3.53,-4.41 6.81,-7.52 9.18,-13.01 c 0.67,-0.33 0.98,-0.88 0.93,-1.64 c 5.22,-13.04 6.54,-27.11 -0.11,-40.03 c -2.78,-5.2 -7.05,-8.41 -12.8,-9.64 c -0.12,-1.72 -6.31,-0.94 -7.5,-0.81 c -0.38,0.16 -0.56,0.44 -0.53,0.84 Z M 552.6,43.06 c 0.42,0.62 1.01,0.92 1.78,0.91 c 3.58,-0.31 4.71,1.17 7.65,2.67 c -0.03,0.73 0.29,1.2 0.98,1.39 c 0.23,0.52 0.58,0.93 1.07,1.22 c 0.3,0.5 0.6,1.01 0.91,1.51 c -0.02,0.75 0.32,1.25 1.01,1.5 c 1.36,3.41 1.72,10.11 -0.16,13.31 c -0.55,0.46 -0.84,1.04 -0.86,1.77 c -2.89,3.87 -5.28,6.71 -10.66,6.66 c -2.18,-0.01 -4.37,-0.01 -6.56,0 c -10.99,0.23 -16.39,-15.4 -10.71,-23.72 c 0.65,-0.33 0.94,-0.86 0.87,-1.59 c 0.54,-0.74 1.18,-1.36 1.91,-1.86 c 0.63,0.06 1.03,-0.21 1.21,-0.82 c 3.39,-1.96 7.67,-3.13 11.56,-2.95 Z M 93.98,93.61 c -0.69,0.35 -1.01,0.91 -0.97,1.69 c -1.89,5.5 -4.79,10.95 -6.95,16.35 c -0.69,0.37 -1.04,0.94 -1.05,1.73 c -0.65,1.76 -1.34,3.51 -2.07,5.25 c -0.63,0.35 -0.95,0.89 -0.95,1.62 c -2.63,5.37 -4.98,10.86 -7.05,16.48 c -0.62,0.31 -0.91,0.82 -0.88,1.52 c -0.03,0.19 -0.07,0.38 -0.11,0.57 c -0.63,0.26 -0.96,0.73 -0.97,1.43 c -0.61,1.83 -1.28,3.64 -2,5.42 c -0.63,0.37 -0.92,0.92 -0.87,1.66 c -0.05,0.13 -0.1,0.27 -0.15,0.4 c -0.63,0.34 -0.93,0.87 -0.9,1.59 c -0.08,0.26 -0.16,0.51 -0.25,0.77 c 0.36,0.67 0.93,0.98 1.7,0.94 c 21.67,-0.07 43.34,-0.06 65.01,0.03 c 1.1,-0.22 4.79,0.67 4.52,-1.4 c -7.93,-16 -15.61,-32.13 -23.04,-48.39 c -0.02,-0.69 -0.33,-1.19 -0.93,-1.52 c -0.02,-0.18 -0.04,-0.36 -0.05,-0.53 c -0.04,-0.74 -0.39,-1.28 -1.03,-1.62 c -3.09,-6.87 -6.36,-13.78 -9.85,-20.26 c -0.13,-1.53 -1.01,-4.33 -3,-2.74 c -2.78,6.32 -5.5,12.65 -8.16,19.01 Z M 398.01,106.98 c 0.19,0.65 0.65,0.93 1.35,0.86 c 2.36,0.32 3.33,2.9 3.68,4.94 c -0.04,0.69 0.27,1.09 0.93,1.21 c 0.1,3.51 1.57,6.73 1.04,10.61 c 0.22,0.98 -0.71,5.88 1.17,5.49 c 0.15,-0.03 0.31,-0.07 0.46,-0.1 c 0.72,0.02 1.15,-0.3 1.27,-0.98 c 0.58,-0.26 1.04,-0.65 1.39,-1.17 c 4.68,-4.03 9.04,-8.8 14.46,-11.79 c 0.75,-0.04 1.27,-0.4 1.55,-1.1 c 11.46,-6.85 20.13,-8.59 33.4,-7.91 c 0.37,0.62 0.93,0.93 1.67,0.91 c 2.76,-0.35 4.22,0.69 6.61,1.07 c 0.15,0.6 0.53,0.83 1.14,0.7 c 3.73,1.29 6.92,3.34 9.84,5.93 c 0.21,0.69 0.66,1.11 1.37,1.27 c 0.24,0.23 0.47,0.48 0.7,0.73 c -0.02,0.8 0.34,1.35 1.09,1.63 c 2,2.35 2.85,4.45 3.98,7.32 c -0.05,0.75 0.23,1.34 0.83,1.78 c 0.11,0.5 0.21,1.02 0.3,1.53 c -0.11,0.61 0.14,0.97 0.75,1.07 c 0.01,0.92 -0.01,1.83 -0.05,2.75 c 0.02,0.75 0.36,1.29 1.03,1.61 c 0.08,2.1 0.43,4.15 1.04,6.15 c -0.02,21.01 -0.01,42.02 0.02,63.03 c 1.06,4.62 0.25,9.22 3.23,13.24 c -0.1,0.75 0.22,1.08 0.98,1.01 c -0.09,0.74 0.24,1.07 0.97,1 c 0.48,0.44 0.95,0.87 1.44,1.3 c 0.34,0.61 0.87,0.91 1.58,0.91 c 0.51,0.01 1.02,0.02 1.53,0.03 c 0.35,0.61 0.88,0.95 1.59,1.01 c 2.01,-0.08 4.02,-0.04 6.02,0.12 c 0.99,0.72 0.98,2.96 0,3.72 c -6.05,0.21 -12.1,0.19 -18.14,-0.07 c -1.2,-1.39 -4.75,-0.58 -6.44,-0.88 c -2.16,0.18 -4.33,0.2 -6.49,0.04 c -1.75,0.19 -6.25,-0.41 -7.52,0.8 c -6.38,0.3 -12.76,0.33 -19.15,0.11 c -0.98,-0.71 -0.99,-2.95 -0.01,-3.7 c 1.68,-0.16 3.35,-0.22 5.04,-0.18 c 0.75,0.01 1.3,-0.31 1.65,-0.97 c 0.43,-0.03 0.87,-0.04 1.3,-0.05 c 0.76,-0.02 1.34,-0.35 1.73,-0.99 c 2.9,-2.22 4.65,-4.91 4.65,-8.71 c 0.6,-0.36 0.93,-0.89 0.98,-1.6 c 0.03,-20.8 0.04,-41.59 0.03,-62.39 c 0.03,-0.73 -0.29,-1.24 -0.94,-1.54 c -0.02,-0.8 -0.05,-1.59 -0.11,-2.39 c -0.1,-0.67 -0.42,-1.2 -0.96,-1.59 c 0.41,-2.82 -1.34,-5.13 -2.25,-7.61 c 0.11,-0.71 -0.17,-1.18 -0.83,-1.43 c -0.6,-0.85 -1.25,-1.66 -1.95,-2.43 c 0.01,-0.71 -0.32,-1.15 -1,-1.32 c 0.02,-0.64 -0.29,-0.95 -0.94,-0.95 c -0.18,-0.59 -0.59,-0.86 -1.21,-0.83 c -0.46,-0.38 -0.92,-0.75 -1.4,-1.1 c -0.34,-0.69 -0.9,-1.04 -1.66,-1.05 c -0.14,-0.02 -0.29,-0.05 -0.43,-0.07 c -0.37,-0.62 -0.92,-0.89 -1.65,-0.83 c -0.16,-0.04 -0.33,-0.08 -0.5,-0.13 c -0.24,-0.68 -0.73,-1 -1.48,-0.97 c -0.89,0.01 -1.77,-0.01 -2.66,-0.04 c -0.14,-1.07 -1.56,-0.93 -2.33,-0.93 c -2.48,-0.06 -4.96,-0.08 -7.44,-0.05 c -0.73,0.07 -1.23,0.43 -1.49,1.11 c -1.48,-0.11 -2.97,-0.13 -4.46,-0.07 c -0.73,0 -1.29,0.29 -1.68,0.89 c -0.5,0.12 -1.01,0.24 -1.52,0.34 c -0.64,-0.19 -1.01,0.04 -1.13,0.69 c -0.97,0.15 -1.89,0.48 -2.74,0.99 c -0.73,0.04 -1.27,0.37 -1.63,1.01 c -0.85,0.18 -1.6,0.56 -2.24,1.15 c -0.77,-0.08 -1.32,0.23 -1.64,0.92 c -0.84,0.55 -1.63,1.19 -2.39,1.92 c -0.78,0.04 -1.36,0.4 -1.73,1.08 c -1.36,1.39 -5.41,4.61 -5.56,6.46 c -0.03,21.74 -0.06,43.48 -0.11,65.21 c -0.16,1.33 0.15,2.5 0.92,3.53 c 0.14,1.82 0.2,3.64 0.16,5.47 c -0.06,0.75 0.26,1.26 0.96,1.5 c 0.03,0.16 0.05,0.32 0.08,0.47 c 0.04,0.76 0.42,1.27 1.13,1.54 c -0.11,0.27 -0.22,0.54 -0.33,0.81 c 0.28,0.59 0.74,0.83 1.38,0.74 c -0.12,0.76 0.2,1.09 0.97,1 c 0.45,0.46 0.96,0.85 1.53,1.16 c 0.32,0.7 0.86,1.04 1.64,1.03 c 0.54,0 1.07,0.02 1.61,0.06 c 0.2,0.62 0.63,0.94 1.29,0.98 c 2.04,-0.06 4.08,-0.01 6.11,0.14 c 0.95,0.78 0.97,3.01 -0.02,3.72 c -7.02,0.17 -14.03,0.19 -21.04,0.06 c -0.96,-1.43 -3.21,-0.84 -4.68,-0.99 c -2.12,0.55 -4.24,0.53 -6.36,-0.05 c -2.21,0.18 -5.34,-0.3 -7.3,0.85 c -6.45,0.32 -12.91,0.36 -19.36,0.13 c -0.92,-0.73 -1.05,-3.05 -0.12,-3.76 c 2.07,-0.14 4.14,-0.16 6.22,-0.05 c 0.73,0.02 1.16,-0.33 1.27,-1.04 c 0.58,-0.01 1.16,0 1.75,0 c 0.78,-0.04 1.32,-0.43 1.61,-1.17 c 2.81,-1.8 4.42,-4.36 4.84,-7.69 c 0.73,-1.04 1,-2.21 0.81,-3.49 c -0.01,-24.14 -0.01,-48.28 -0.01,-72.41 c 0.12,-0.97 -0.17,-1.77 -0.86,-2.4 c -0.1,-0.86 -0.16,-1.73 -0.2,-2.59 c 0.06,-0.77 -0.26,-1.3 -0.96,-1.61 c -1.86,-1.73 -1.65,-2.71 -4.71,-2.65 c -0.4,-0.59 -0.96,-0.91 -1.68,-0.95 c -0.75,-0.37 -1.52,-0.4 -2.32,-0.09 c -1.02,-0.13 -1.8,0.22 -2.32,1.05 c -0.51,0.02 -1.03,0.01 -1.55,-0.02 c -0.78,-0.02 -1.35,0.3 -1.71,0.98 c -1.01,-0.09 -3.97,2.23 -4.55,1.34 c -1.67,-2.39 -1.09,-3.92 1.74,-4.58 c 0.66,0.16 1.03,-0.08 1.11,-0.74 c 3.3,-1.68 6.56,-3.42 9.79,-5.21 c 0.69,0.12 1.1,-0.15 1.24,-0.8 c 3.93,-1.9 7.81,-3.92 11.62,-6.07 c 0.76,0.08 1.32,-0.21 1.69,-0.86 c 3.54,-1.77 6.96,-3.89 10.68,-5.07 Z M 563.94,108.65 c 0.06,0.76 0.43,1.3 1.11,1.62 c -0.05,32.5 -0.07,65 -0.04,97.49 c 0.1,0.67 0.45,1.15 1.06,1.45 c 0.01,1.16 -0.02,2.33 -0.08,3.5 c -0.01,0.72 0.31,1.22 0.95,1.49 c -0.03,3.27 2.7,4.77 4.81,6.78 c 0.31,0.67 0.83,1.01 1.57,1.03 c 0.76,0 1.53,-0.01 2.29,-0.02 c 0.43,0.59 1.02,0.92 1.76,1 c 1.47,0.38 5.87,-1.07 5.67,1.51 c 0.16,0.91 -0.06,1.7 -0.66,2.37 c -6.39,0.23 -12.78,0.18 -19.15,-0.15 c -1.44,-1.08 -4.83,-0.62 -6.57,-0.7 c -2.8,0.08 -5.6,0.06 -8.4,-0.06 c -1.34,0.19 -3.67,-0.5 -4.39,1.02 c -6.75,0.07 -13.5,0.03 -20.24,-0.12 c -0.91,-0.73 -1.12,-3.11 -0.1,-3.78 c 2.04,-0.06 4.09,-0.09 6.13,-0.09 c 0.75,0.07 1.21,-0.25 1.37,-0.96 c 0.54,-0.06 1.08,-0.09 1.63,-0.09 c 0.78,0.01 1.32,-0.34 1.62,-1.04 c 1.8,-1.09 3.03,-2.62 3.7,-4.58 c 0.67,-0.3 0.99,-0.82 0.96,-1.56 c -0.01,-1.07 0.04,-2.14 0.16,-3.21 c 1.9,-2.54 0.91,-65.71 0.92,-74.28 c -0.04,-0.7 -0.38,-1.19 -1.02,-1.47 c -0.03,-1.18 -0.04,-2.35 -0.03,-3.53 c 0.04,-0.76 -0.29,-1.29 -0.99,-1.59 c -0.43,-0.65 -0.97,-1.2 -1.61,-1.64 c -0.37,-0.67 -0.93,-1 -1.7,-1 c -0.23,-0.02 -0.45,-0.05 -0.67,-0.07 c -0.12,-1.07 -1.6,-0.98 -2.37,-1.04 c -0.45,-0.2 -0.91,-0.2 -1.36,-0.01 c -1.1,-0.14 -1.97,0.21 -2.61,1.06 c -1.51,0.18 -2.98,0.52 -4.41,1.01 c -0.7,0.05 -1.22,0.38 -1.56,0.99 c -0.74,0.12 -1.46,0.32 -2.16,0.59 c -0.86,-0.71 -0.92,-2.58 -0.9,-3.64 c 1.46,-0.8 2.91,-1.64 4.35,-2.53 c 0.51,-0.29 1.06,-0.43 1.64,-0.41 c 0.73,0.02 1.31,-0.26 1.73,-0.85 c 1.72,-0.83 3.48,-1.56 5.27,-2.19 c 0.78,0.03 1.32,-0.29 1.64,-0.98 c 0.74,-0.56 1.56,-0.89 2.48,-0.97 c 0.72,0.02 1.28,-0.27 1.67,-0.87 c 3.12,-1.52 6.28,-2.99 9.46,-4.41 c 0.6,0.14 0.98,-0.09 1.12,-0.69 c 1.86,-1.05 4.18,-1.28 5.63,-2.93 c 3.68,-0.47 6.7,-4.25 10.32,-1.45 Z M 221.97,110.98 c 0.59,1.64 3.97,0.85 5.34,1.14 c 7.76,-0.17 15.53,-0.17 23.3,0 c 1.25,-0.42 7.45,0.54 7.65,-1.07 c 4.37,-0.1 8.74,-0.07 13.11,0.09 c 0.99,0.76 1,3 0,3.73 c -2.03,0.11 -4.07,0.19 -6.12,0.22 c -0.71,-0.02 -1.26,0.26 -1.65,0.86 c -0.87,0.19 -1.63,0.58 -2.28,1.19 c -0.69,-0.07 -1.09,0.22 -1.22,0.88 c -0.74,0.14 -1.11,0.6 -1.11,1.37 c -2.25,2.79 -0.32,7.18 -0.03,10.27 c 0.05,0.69 0.37,1.21 0.95,1.58 c 0.41,1.16 0.78,2.33 1.09,3.51 c -0.01,0.74 0.32,1.25 0.99,1.54 c 6.69,13.81 13.36,27.61 20.03,41.41 c 0.02,0.74 0.35,1.29 0.99,1.64 c 0.42,0.84 0.84,1.67 1.25,2.52 c -0.07,0.67 0.19,1.17 0.79,1.49 c 1.24,1.98 2.22,4.08 2.95,6.3 c 0.02,0.77 0.37,1.33 1.04,1.69 c 0.48,0.68 0.81,1.43 0.99,2.24 c -0.02,0.75 0.27,1.33 0.88,1.75 c 0.03,0.15 0.06,0.29 0.08,0.44 c 0.02,0.62 0.29,1.09 0.82,1.4 c 0.08,0.15 0.16,0.3 0.23,0.45 c -0.02,0.75 0.3,1.27 0.97,1.57 c 0.51,0.68 1.09,0.72 1.75,0.12 c 4.18,-10.63 8.31,-21.3 12.36,-32 c 0.6,-0.37 0.87,-0.9 0.81,-1.61 c 2.82,-11.93 19.72,-39.3 5.41,-47.76 c -0.36,-0.62 -0.89,-0.92 -1.61,-0.92 c -1.15,-0.33 -2.3,-0.69 -3.44,-1.06 c -0.61,-0.88 -1.46,-1.2 -2.55,-0.96 c -1.71,0.06 -3.41,0.01 -5.11,-0.14 c -0.99,-0.72 -0.96,-2.95 0.01,-3.71 c 3.72,-0.16 7.45,-0.19 11.19,-0.09 c 0.72,1.61 5.04,0.75 6.54,0.95 c 5.79,-0.05 11.57,-0.03 17.35,0.06 c 1.44,-0.24 3.6,0.35 4.61,-0.93 c 3.67,-0.19 7.35,-0.19 11.04,0 c 0.46,0.33 0.68,0.78 0.65,1.36 c 0.61,3.43 -2.46,2.36 -4.62,2.52 c -0.74,0 -1.28,0.33 -1.62,0.97 c -4,0.63 -9.55,6.14 -12.44,9.05 c -0.31,0.31 -0.41,0.68 -0.29,1.1 c -0.71,0.02 -1,0.39 -0.88,1.1 c -1.14,1.74 -2.15,3.57 -3.01,5.48 c -0.71,0.32 -1.08,0.86 -1.13,1.64 c -0.03,0.14 -0.07,0.28 -0.1,0.43 c -0.66,0.27 -0.95,0.76 -0.89,1.48 c -2.68,6.83 -5.37,13.66 -8.08,20.48 c -0.59,0.32 -0.91,0.81 -0.95,1.48 c -0.05,0.51 -0.06,1.01 -0.05,1.51 c -0.63,0.31 -0.95,0.82 -0.96,1.53 c -1.14,2.76 -2.16,5.56 -3.06,8.4 c -0.61,0.35 -0.91,0.87 -0.92,1.57 c -0.16,1.21 -0.53,2.36 -1.11,3.44 c -0.59,0.36 -0.9,0.88 -0.93,1.57 c -0.25,1.15 -0.58,2.27 -1.01,3.37 c -0.65,0.37 -0.98,0.92 -0.99,1.67 c -0.18,1.21 -0.52,2.38 -1.01,3.5 c -0.54,0.28 -0.78,0.73 -0.72,1.34 c -0.66,2.95 -3.18,6.83 -3.26,9.63 c -0.62,0.33 -0.94,0.85 -0.95,1.56 c -1.22,2.7 -2.26,5.47 -3.14,8.3 c -0.6,0.39 -0.9,0.95 -0.89,1.67 c -1.49,4.53 -3.2,9 -5.13,13.4 c -0.62,0.32 -0.9,0.84 -0.85,1.55 c -0.31,1.14 -0.66,2.27 -1.05,3.38 c -0.65,0.38 -0.96,0.96 -0.94,1.73 c -1.51,5.46 -4.51,10.77 -6.08,16.3 c -0.66,0.38 -0.95,0.95 -0.86,1.72 c -0.64,1.03 -1.02,2.15 -1.15,3.34 c -0.61,0.38 -0.9,0.93 -0.88,1.65 c -1.19,4.3 -4.09,8.56 -5.25,12.96 c -2.63,5.12 -5.19,10.26 -7.7,15.41 c -0.74,0.26 -1.08,0.78 -1.01,1.58 c -0.78,1.07 -1.43,2.22 -1.94,3.44 c -0.76,0.22 -1.14,0.73 -1.16,1.52 c -0.27,0.49 -0.57,0.97 -0.9,1.42 c -0.71,0.31 -1.09,0.84 -1.12,1.62 c -0.31,0.44 -0.61,0.89 -0.9,1.35 c -0.5,0.3 -0.85,0.72 -1.05,1.27 c -0.55,0.23 -0.9,0.63 -1.06,1.2 c -0.5,0.12 -0.77,0.44 -0.81,0.95 c -0.99,1.22 -2.04,2.38 -3.15,3.49 c -0.52,0.43 -1,0.9 -1.43,1.42 c -0.22,0.23 -0.46,0.45 -0.71,0.66 c -0.46,0.41 -0.87,0.88 -1.23,1.39 c -1.12,0.98 -2.23,1.97 -3.32,2.99 c -0.83,-0.01 -1.38,0.38 -1.64,1.17 c -0.46,0.23 -0.9,0.49 -1.33,0.77 c -0.81,0.02 -1.39,0.4 -1.74,1.14 c -2.01,1.21 -4.13,2.2 -6.35,2.95 c -0.72,-0.03 -1.24,0.27 -1.57,0.89 c -0.78,0 -1.57,0.03 -2.35,0.08 c -1.04,-0.2 -1.83,0.12 -2.38,0.97 c -1.24,0.02 -2.47,0.02 -3.71,0.01 c -1.49,0.01 -2.99,0.01 -4.49,0.01 c -1.25,0.02 -2.5,0.01 -3.75,-0.04 c -0.19,-0.64 -0.63,-0.95 -1.32,-0.93 c -1.26,0.09 -2.37,-0.27 -3.32,-1.07 c -0.43,-0.63 -1.02,-0.93 -1.79,-0.89 c -0.57,-0.59 -1.15,-1.17 -1.73,-1.75 c 0.1,-0.79 -0.21,-1.32 -0.94,-1.6 c -5.42,-11.97 1.08,-19.82 13.77,-18.71 c 0.34,0.65 0.89,0.97 1.63,0.97 c 4.23,0.96 7.93,4.62 12.46,4.03 c 0.3,0.67 0.83,0.98 1.58,0.93 c 0.45,0 0.91,0 1.36,0.01 c 0.7,0.02 1.12,-0.29 1.27,-0.96 c 1.31,0.05 2.61,-0.04 3.91,-0.26 c 0.67,0.18 1.03,-0.06 1.08,-0.74 c 14.92,-7.12 23.92,-34.14 30.06,-48.73 c 0.67,-0.32 0.98,-0.86 0.95,-1.61 c 0.8,-3.3 2.51,-4.49 2.08,-8.33 c -0.04,-0.75 -0.4,-1.26 -1.1,-1.53 c -0.02,-0.17 -0.04,-0.34 -0.06,-0.51 c 0.06,-0.72 -0.21,-1.26 -0.82,-1.64 c -0.05,-0.11 -0.11,-0.23 -0.17,-0.35 c 0.06,-0.78 -0.26,-1.33 -0.96,-1.65 c -2.13,-4.9 -4.46,-9.71 -6.98,-14.4 c -0.01,-0.74 -0.35,-1.27 -1.01,-1.6 c -6.32,-14.2 -15.01,-29.39 -20.94,-43.38 c -0.04,-0.76 -0.41,-1.28 -1.1,-1.55 c -0.77,-0.66 -1.07,-1.49 -0.9,-2.48 c -0.08,-0.76 -0.47,-1.29 -1.18,-1.58 c 0.16,-0.26 0.33,-0.52 0.5,-0.77 c -0.25,-0.59 -0.66,-1.03 -1.22,-1.32 c -0.7,-0.6 -1.07,-1.35 -1.11,-2.27 c 0.03,-0.74 -0.29,-1.28 -0.94,-1.62 c -0.88,-2.24 -1.91,-4.39 -3.09,-6.44 c 0.04,-0.73 -0.26,-1.25 -0.9,-1.57 c -0.04,-0.14 -0.08,-0.28 -0.12,-0.42 c -0.02,-0.7 -0.3,-1.26 -0.84,-1.69 c -1.36,-2.78 -2.74,-5.55 -4.15,-8.3 c -0.05,-0.67 -0.34,-1.19 -0.89,-1.57 c -0.06,-0.12 -0.11,-0.23 -0.16,-0.35 c 0.04,-0.72 -0.25,-1.28 -0.85,-1.67 c -0.64,-0.75 -1.11,-1.59 -1.39,-2.54 c 0.15,-0.64 -0.09,-1.02 -0.73,-1.13 c -0.29,-0.6 -0.64,-1.16 -1.05,-1.69 c 0.06,-0.83 -0.29,-1.39 -1.05,-1.68 c -0.28,-0.53 -0.64,-1 -1.06,-1.41 c 0.1,-0.78 -0.21,-1.32 -0.94,-1.61 c -1.34,-1.66 -2.83,-3.18 -4.47,-4.56 c -0.34,-0.74 -0.91,-1.08 -1.73,-1.03 c -0.87,-0.08 -1.62,-0.43 -2.24,-1.03 c -0.75,-0.82 -1.69,-1.15 -2.82,-0.98 c -0.99,0.04 -1.98,-0.01 -2.97,-0.16 c -0.99,-0.76 -0.99,-3 0,-3.72 c 3.44,-0.13 6.89,-0.18 10.34,-0.16 Z M 648.12,130.87 c -0.75,0.2 -1.1,0.7 -1.07,1.49 c -0.25,0.24 -0.51,0.47 -0.77,0.7 c -0.69,0.14 -1.12,0.56 -1.28,1.24 c -1.35,1.44 -2.64,2.91 -3.89,4.42 c -0.71,0.31 -1.07,0.87 -1.08,1.65 c -3.53,4.4 -7.36,12.71 -8.06,18.4 c -0.52,0.37 -0.83,0.88 -0.92,1.52 c -0.04,2.15 -0.08,4.29 -0.13,6.42 c -1.34,0.68 -1.53,6.18 0.1,6.61 c -0.05,2.48 -0.06,4.96 -0.02,7.44 c -0.02,0.78 -0.12,2.21 1,2.28 c 0.43,1.5 0.77,3.02 1.01,4.56 c 0.03,0.75 0.36,1.33 0.98,1.74 c 2.52,7.29 6.69,13.51 12.48,18.66 c 5.89,4.18 14.18,8.97 21.49,9 c -0.04,1.23 1.6,1.05 2.39,0.97 c 2.78,0.03 5.56,0.03 8.34,0 c 0.8,0.07 2.29,0.23 2.34,-0.95 c 10.51,-0.53 21.47,-7.37 28.86,-14.64 c 1.29,-0.59 1.3,-1.17 0.03,-1.76 c -4.31,-4.47 -8.65,-8.92 -13.01,-13.34 c 0.08,-0.77 -0.22,-1.3 -0.91,-1.6 c -2.66,-2.78 -5.33,-5.57 -8,-8.38 c 0,-0.65 -0.31,-1.07 -0.92,-1.26 c -0.14,-0.71 -0.57,-1.17 -1.28,-1.38 c 0.13,-0.26 0.07,-0.48 -0.18,-0.67 c -2.14,-1.88 -4.14,-3.9 -6.02,-6.05 c -2.12,-2.68 -4.22,-5.32 -6.3,-7.94 c -0.41,-0.51 -0.89,-0.93 -1.45,-1.26 c -7.15,-8.84 -15.06,-18.23 -21.85,-27.45 c 0.09,-1.21 -1.74,-1.94 -1.88,-0.42 Z"/></g>
<g><path fill="#6e6e6e" fill-opacity="0.745" d="M 397.65,225.93 c 1.47,0.15 3.72,-0.44 4.68,0.99 c -1.04,-0.05 -4.56,0.58 -4.68,-0.99 Z"/></g>
<g><path fill="#646464" fill-opacity="0.659" d="M 463.97,210.66 c -0.05,0.71 -0.38,1.24 -0.98,1.6 c 0.08,-0.7 0.4,-1.24 0.98,-1.6 Z M 475.3,225.95 c -0.08,1.8 -6.28,0.78 -7.52,0.8 c 1.27,-1.21 5.77,-0.61 7.52,-0.8 Z"/></g>
<g><path fill="#5f5f5f" fill-opacity="0.451" stroke="#5f5f5f" stroke-width="0.5" stroke-opacity="0.451" d="M 405.01,124.6 c 1.68,0.93 0.71,3.88 1.17,5.49 c -1.88,0.39 -0.95,-4.51 -1.17,-5.49 Z M 264.11,286.69 c -0.06,0.77 -0.43,1.31 -1.12,1.62 c 0.03,-0.78 0.41,-1.31 1.12,-1.62 Z"/></g>
<g><path fill="#636363" fill-opacity="0.467" stroke="#636363" stroke-width="0.5" stroke-opacity="0.467" d="M 995.02,69.57 c 0.52,0.44 0.87,0.99 1.05,1.66 c -0.67,-0.35 -1.02,-0.9 -1.05,-1.66 Z M 534.67,128.04 c 0.77,0 1.33,0.33 1.7,1 c -0.76,-0.02 -1.33,-0.35 -1.7,-1 Z M 239.09,146.68 c 0.64,0.32 0.94,0.84 0.9,1.57 c -0.6,-0.35 -0.9,-0.87 -0.9,-1.57 Z"/></g>
<g><path fill="#5e5e5e" fill-opacity="0.545" d="M 949.75,43.03 c 0.7,-0.01 1.2,0.29 1.49,0.92 c -0.69,0 -1.19,-0.31 -1.49,-0.92 Z M 372.59,127.05 c 0.72,0.04 1.28,0.36 1.68,0.95 c -0.66,-0.13 -1.22,-0.45 -1.68,-0.95 Z M 290.99,195.77 c 0.61,0.27 0.89,0.73 0.82,1.4 c -0.53,-0.31 -0.8,-0.78 -0.82,-1.4 Z M 978.24,223.97 c -0.27,0.65 -0.77,0.96 -1.51,0.94 c 0.31,-0.62 0.82,-0.93 1.51,-0.94 Z"/></g>
<g><path fill="#4e4e4e" fill-opacity="0.698" d="M 942.73,40.96 c 0.66,0.14 1.16,0.5 1.5,1.08 c -0.73,-0.06 -1.23,-0.42 -1.5,-1.08 Z M 68.81,150.09 c 18.57,-0.12 37.13,-0.13 55.69,-0.03 c 5.19,0.06 10.36,-0.07 15.54,-0.4 c 0.27,2.07 -3.42,1.18 -4.52,1.4 c -21.67,-0.09 -43.34,-0.1 -65.01,-0.03 c -0.77,0.04 -1.34,-0.27 -1.7,-0.94 Z"/></g>
<g><path fill="#484848" fill-opacity="0.682" d="M 994.01,61.7 c 1.07,0.09 0.88,1.82 0.84,2.57 c -0.7,-0.69 -0.98,-1.55 -0.84,-2.57 Z M 985.85,73.73 c 0.66,0.32 1.01,0.84 1.06,1.57 c -0.61,-0.35 -0.96,-0.87 -1.06,-1.57 Z M 247.93,164.73 c 0.69,0.27 1.06,0.79 1.1,1.55 c -0.62,-0.32 -0.99,-0.84 -1.1,-1.55 Z M 713.3,209.19 c -0.36,0.34 -0.75,0.64 -1.18,0.9 c 0.1,-0.67 0.5,-0.97 1.18,-0.9 Z M 712.12,210.09 c -0.31,0.42 -0.72,0.7 -1.23,0.82 c 0.27,-0.48 0.68,-0.75 1.23,-0.82 Z M 710.89,210.91 c -0.04,0.77 -0.45,1.16 -1.23,1.17 c 0.3,-0.5 0.71,-0.89 1.23,-1.17 Z M 647.59,230.01 c 0.71,0.01 1.24,0.31 1.59,0.9 c -0.67,-0.06 -1.2,-0.36 -1.59,-0.9 Z"/></g>
<g><path fill="#494949" fill-opacity="0.925" d="M 675.03,37.99 c -2.68,-0.01 -5.36,0 -8.03,0.03 c -0.03,-0.4 0.15,-0.68 0.53,-0.84 c 1.19,-0.13 7.38,-0.91 7.5,0.81 Z"/></g>
<g><path fill="#585858" fill-opacity="0.78" d="M 391.29,225.88 c -0.08,2.01 -6,0.71 -7.3,0.85 c 1.96,-1.15 5.09,-0.67 7.3,-0.85 Z"/></g>
<g><path fill="#464646" fill-opacity="0.965" d="M 547.76,74 c 2.19,-0.01 4.38,-0.01 6.56,0 c -0.66,1.56 -6.49,1.43 -6.56,0 Z M 407.02,213.71 c 0.59,0.31 0.91,0.81 0.96,1.5 c -0.7,-0.24 -1.02,-0.75 -0.96,-1.5 Z"/></g>
<g><path fill="#515151" fill-opacity="0.686" d="M 946.6,41.96 c 0.67,0.13 1.23,0.44 1.68,0.95 c -0.75,-0.01 -1.31,-0.33 -1.68,-0.95 Z M 165.05,202.6 c 0.62,0.41 0.93,0.99 0.93,1.75 c -0.66,-0.39 -0.97,-0.97 -0.93,-1.75 Z M 58.62,220.03 c 0.77,-0.03 1.35,0.29 1.73,0.95 c -0.75,0 -1.33,-0.32 -1.73,-0.95 Z M 458.34,220.97 c -0.39,0.64 -0.97,0.97 -1.73,0.99 c 0.4,-0.63 0.97,-0.96 1.73,-0.99 Z M 962.36,228.04 c -0.46,0.53 -1.04,0.84 -1.73,0.94 c 0.39,-0.64 0.97,-0.95 1.73,-0.94 Z M 673.26,230.02 c -0.28,0.6 -0.76,0.93 -1.45,1.01 c 0.27,-0.63 0.76,-0.97 1.45,-1.01 Z"/></g>
<g><path fill="#494949" fill-opacity="0.647" d="M 648,68.67 c 0.57,0.41 0.91,0.97 1.01,1.66 c -0.56,-0.41 -0.89,-0.96 -1.01,-1.66 Z M 663.1,103.59 c 0.57,0.44 0.88,1.01 0.92,1.73 c -0.66,-0.38 -0.97,-0.95 -0.92,-1.73 Z M 327.93,134.79 c -0.05,0.66 -0.34,1.16 -0.89,1.48 c -0.06,-0.72 0.23,-1.21 0.89,-1.48 Z M 405.94,204.71 c 1.36,-0.1 0.85,2.71 0.92,3.53 c -0.77,-1.03 -1.08,-2.2 -0.92,-3.53 Z"/></g>
<g><path fill="#505050" fill-opacity="0.714" d="M 311.83,111.06 c 1.64,0 5.57,-0.61 6.54,0.95 c -1.5,-0.2 -5.82,0.66 -6.54,-0.95 Z"/></g>
<g><path fill="#383838" fill-opacity="0.945" d="M 533.26,119.97 c -0.32,0.69 -0.86,1.01 -1.64,0.98 c 0.37,-0.62 0.92,-0.95 1.64,-0.98 Z M 486.24,129.91 c 0.49,0.15 0.74,0.51 0.75,1.07 c -0.61,-0.1 -0.86,-0.46 -0.75,-1.07 Z M 848.05,154.76 c 0.72,0.57 1.04,1.33 0.95,2.27 c -0.83,-0.51 -1.14,-1.26 -0.95,-2.27 Z M 531.03,222.03 c -0.16,0.71 -0.62,1.03 -1.37,0.96 c 0.34,-0.49 0.79,-0.81 1.37,-0.96 Z"/></g>
<g><path fill="#565656" fill-opacity="0.667" d="M 63.93,161.74 c 0.01,0.72 -0.32,1.23 -0.97,1.52 c 0.01,-0.71 0.33,-1.22 0.97,-1.52 Z M 223.77,311.02 c 1.5,0 3,0 4.49,-0.01 c -0.23,1.27 -3.91,1.63 -4.49,0.01 Z"/></g>
<g><path fill="#4d4d4d" fill-opacity="0.918" d="M 32.3,225.9 c -0.09,1.9 -4.23,0.76 -5.37,0.81 c 1.11,-1.09 3.91,-0.7 5.37,-0.81 Z"/></g>
<g><path fill="#505050" fill-opacity="0.663" d="M 689.8,33.04 c 0.69,0.05 1.21,0.36 1.56,0.93 c -0.71,-0.01 -1.23,-0.32 -1.56,-0.93 Z M 116.07,99.75 c 0.6,0.33 0.91,0.83 0.93,1.52 c -0.64,-0.3 -0.95,-0.81 -0.93,-1.52 Z M 214.6,115.02 c 1.13,-0.17 2.07,0.16 2.82,0.98 c -0.94,0 -2.49,0.19 -2.82,-0.98 Z M 749.59,229.04 c 0.74,-0.05 1.31,0.25 1.69,0.87 c -0.66,-0.1 -1.22,-0.39 -1.69,-0.87 Z"/></g>
<g><path fill="#4c4c4c" fill-opacity="0.678" d="M 565.84,65.57 c 0.16,0.82 -0.13,1.41 -0.86,1.77 c 0.02,-0.73 0.31,-1.31 0.86,-1.77 Z M 715.73,122.93 c 1.32,-0.16 2.5,0.15 3.53,0.94 c -0.85,-0.03 -3.55,0.36 -3.53,-0.94 Z M 896.69,228.01 c 0.72,-0.01 1.26,0.29 1.61,0.92 c -0.66,-0.1 -1.2,-0.4 -1.61,-0.92 Z"/></g>
<g><path fill="#414141" fill-opacity="0.812" d="M 221.97,110.98 c 1.32,0.17 4.89,-0.6 5.34,1.14 c -1.37,-0.29 -4.75,0.5 -5.34,-1.14 Z"/></g>
<g><path fill="#3c3c3c" fill-opacity="0.949" d="M 219.66,117.03 c 0.82,-0.05 1.39,0.29 1.73,1.03 c -0.77,-0.03 -1.34,-0.38 -1.73,-1.03 Z M 537.98,130.68 c 0.7,0.3 1.03,0.83 0.99,1.59 c -0.61,-0.33 -0.94,-0.86 -0.99,-1.59 Z M 774.02,217.03 c 0.62,0.11 1.08,0.43 1.4,0.96 c -0.77,0.08 -1.23,-0.24 -1.4,-0.96 Z M 13.25,222.07 c -0.36,0.57 -0.87,0.85 -1.55,0.86 c 0.4,-0.49 0.92,-0.78 1.55,-0.86 Z"/></g>
<g><path fill="#585858" fill-opacity="0.467" stroke="#585858" stroke-width="0.5" stroke-opacity="0.467" d="M 563.94,108.65 c 0.68,0.32 1.06,0.86 1.11,1.62 c -0.68,-0.32 -1.05,-0.86 -1.11,-1.62 Z M 160.04,123.71 c 0.62,0.31 0.92,0.82 0.9,1.52 c -0.59,-0.33 -0.89,-0.84 -0.9,-1.52 Z M 233.09,134.7 c 0.55,0.38 0.84,0.9 0.89,1.57 c -0.64,-0.32 -0.94,-0.85 -0.89,-1.57 Z M 733.06,183.77 c -0.07,0.66 -0.4,1.15 -0.98,1.48 c -0.02,-0.73 0.3,-1.23 0.98,-1.48 Z"/></g>
<g><path fill="#363636" fill-opacity="0.98" d="M 901.36,42.02 c -0.25,0.59 -0.7,0.92 -1.36,0.97 c 0.17,-0.7 0.63,-1.02 1.36,-0.97 Z M 307.97,184.79 c -0.03,0.58 -0.27,1.02 -0.72,1.34 c -0.06,-0.61 0.18,-1.06 0.72,-1.34 Z M 217,220.98 c 0.55,0.2 1.01,0.52 1.41,0.94 c -0.77,0.1 -1.24,-0.22 -1.41,-0.94 Z M 220.98,222.02 c 0.54,0.15 0.96,0.47 1.26,0.94 c -0.67,0.01 -1.09,-0.3 -1.26,-0.94 Z"/></g>
<g><path fill="#383838" fill-opacity="0.906" d="M 909.76,229.99 c 1.34,0.06 3.51,-0.44 4.27,1.01 c -0.99,-0.06 -4.14,0.43 -4.27,-1.01 Z"/></g>
<g><path fill="#525252" fill-opacity="0.839" d="M 926.77,38.87 c 1.2,0.24 3.7,-0.28 4.28,1.08 c -0.97,-0.24 -4.43,0.57 -4.28,-1.08 Z"/></g>
<g><path fill="#444444" fill-opacity="0.875" d="M 408.86,218.03 c 0.53,0.12 0.99,0.36 1.38,0.74 c -0.64,0.09 -1.1,-0.15 -1.38,-0.74 Z M 492.26,217.76 c 0.33,0.33 0.65,0.67 0.98,1.01 c -0.76,0.07 -1.08,-0.26 -0.98,-1.01 Z M 410.24,218.77 c 0.31,0.35 0.63,0.68 0.97,1 c -0.77,0.09 -1.09,-0.24 -0.97,-1 Z M 493.24,218.77 c 0.3,0.35 0.63,0.69 0.97,1 c -0.73,0.07 -1.06,-0.26 -0.97,-1 Z"/></g>
<g><path fill="#4c4c4c" fill-opacity="0.706" d="M 650,131.29 c -0.62,-0.14 -1.25,-0.27 -1.88,-0.42 c 0.14,-1.52 1.97,-0.79 1.88,0.42 Z M 648.12,130.87 c -0.32,0.52 -0.68,1.02 -1.07,1.49 c -0.03,-0.79 0.32,-1.29 1.07,-1.49 Z M 745.77,227.97 c 0.72,0 1.25,0.32 1.58,0.96 c -0.74,0.01 -1.27,-0.31 -1.58,-0.96 Z"/></g>
<g><path fill="#555555" fill-opacity="0.745" d="M 227.86,125.64 c 0.76,0.29 1.11,0.85 1.05,1.68 c -0.61,-0.4 -0.96,-0.96 -1.05,-1.68 Z M 453.81,128.18 c 0.62,-0.03 1.03,0.24 1.21,0.83 c -0.52,-0.11 -0.92,-0.39 -1.21,-0.83 Z M 455.02,129.01 c 0.65,0 0.96,0.31 0.94,0.95 c -0.6,-0.03 -0.92,-0.34 -0.94,-0.95 Z M 455.96,129.96 c 0.68,0.17 1.01,0.61 1,1.32 c -0.45,-0.35 -0.78,-0.79 -1,-1.32 Z"/></g>
<g><path fill="#363636" fill-opacity="0.933" d="M 134.22,69.77 c 0.46,0.28 0.71,0.7 0.76,1.25 c -0.68,-0.14 -0.93,-0.56 -0.76,-1.25 Z M 714.05,119.99 c 1.2,0.12 0.99,1.91 0.85,2.74 c -1.19,0.36 -0.88,-2.14 -0.85,-2.74 Z"/></g>
<g><path fill="#4f4f4f" fill-opacity="0.749" d="M 485.11,126.6 c 0.57,0.45 0.85,1.04 0.83,1.78 c -0.6,-0.44 -0.88,-1.03 -0.83,-1.78 Z M 530.27,126.92 c -0.08,1.15 -1.79,1.04 -2.61,1.06 c 0.64,-0.85 1.51,-1.2 2.61,-1.06 Z"/></g>
<g><path fill="#404040" fill-opacity="0.922" d="M 958.7,47 c 0.76,-0.02 1.27,0.31 1.55,1 c -0.73,0 -1.25,-0.33 -1.55,-1 Z M 366.4,127.99 c -0.4,0.59 -0.98,0.92 -1.71,0.98 c 0.36,-0.68 0.93,-1 1.71,-0.98 Z M 415.99,222.02 c 0.65,0.05 1.08,0.38 1.29,0.98 c -0.66,-0.04 -1.09,-0.36 -1.29,-0.98 Z"/></g>
<g><path fill="#525252" fill-opacity="0.776" d="M 136.05,73.65 c 0.64,0.34 0.92,0.88 0.84,1.62 c -0.62,-0.36 -0.9,-0.89 -0.84,-1.62 Z M 311.91,174.68 c -0.02,0.72 -0.33,1.24 -0.93,1.57 c 0.03,-0.69 0.34,-1.21 0.93,-1.57 Z M 685.28,226.94 c -0.33,0.67 -0.89,1.02 -1.66,1.05 c 0.36,-0.65 0.91,-1 1.66,-1.05 Z"/></g>
<g><path fill="#595959" fill-opacity="0.522" stroke="#595959" stroke-width="0.5" stroke-opacity="0.522" d="M 409.3,127.84 c -0.35,0.52 -0.81,0.91 -1.39,1.17 c 0.26,-0.64 0.72,-1.02 1.39,-1.17 Z M 407.91,129.01 c -0.12,0.68 -0.55,1 -1.27,0.98 c 0.33,-0.46 0.75,-0.78 1.27,-0.98 Z M 269.12,278.73 c -0.01,0.74 -0.35,1.27 -1.01,1.58 c -0.07,-0.8 0.27,-1.32 1.01,-1.58 Z"/></g>
<g><path fill="#464646" fill-opacity="0.694" d="M 262.09,289.66 c -0.01,0.72 -0.36,1.15 -1.05,1.27 c 0.2,-0.55 0.55,-0.97 1.05,-1.27 Z M 261.04,290.93 c -0.24,0.5 -0.59,0.9 -1.06,1.2 c 0.16,-0.57 0.51,-0.97 1.06,-1.2 Z M 259.98,292.13 c -0.18,0.39 -0.45,0.71 -0.81,0.95 c 0.04,-0.51 0.31,-0.83 0.81,-0.95 Z"/></g>
<g><path fill="#505050" fill-opacity="0.82" d="M 225.98,223.63 c 1.4,0.56 1.64,3.06 -0.31,3.35 c 0.28,-1.1 0.38,-2.21 0.31,-3.35 Z"/></g>
<g><path fill="#4a4a4a" fill-opacity="0.686" d="M 780.28,122.99 c -0.02,1.07 -1.69,0.92 -2.42,0.87 c 0.18,-1.06 1.64,-0.88 2.42,-0.87 Z M 875.75,222.09 c 0.68,-0.04 1.19,0.25 1.51,0.85 c -0.69,0.02 -1.19,-0.26 -1.51,-0.85 Z"/></g>
<g><path fill="#4f4f4f" fill-opacity="0.569" d="M 655.4,35.07 c -0.4,0.61 -0.96,0.92 -1.69,0.93 c 0.35,-0.67 0.91,-0.98 1.69,-0.93 Z M 967.68,53.01 c 0.71,0.22 1.13,0.69 1.29,1.41 c -0.46,-0.45 -0.89,-0.92 -1.29,-1.41 Z M 629.1,95.67 c 0.63,0.39 0.93,0.97 0.89,1.72 c -0.59,-0.4 -0.89,-0.98 -0.89,-1.72 Z"/></g>
<g><path fill="#424242" fill-opacity="0.961" d="M 225.86,122.62 c 0.73,0.29 1.04,0.83 0.94,1.61 c -0.58,-0.38 -0.89,-0.92 -0.94,-1.61 Z M 60.73,221.07 c 0.71,0.08 1.27,0.4 1.69,0.96 c -0.78,0.05 -1.35,-0.27 -1.69,-0.96 Z M 571.75,220.98 c 0.68,0.12 1.2,0.47 1.57,1.03 c -0.74,-0.02 -1.26,-0.36 -1.57,-1.03 Z"/></g>
<g><path fill="#2e2e2e" fill-opacity="0.957" d="M 852.95,89.02 c -0.01,0.53 -0.25,0.89 -0.7,1.07 c -0.15,-0.61 0.09,-0.97 0.7,-1.07 Z M 547.99,113.03 c -0.14,0.6 -0.52,0.83 -1.12,0.69 c 0.23,-0.43 0.6,-0.66 1.12,-0.69 Z M 374.02,118.98 c -0.14,0.65 -0.55,0.92 -1.24,0.8 c 0.25,-0.51 0.66,-0.78 1.24,-0.8 Z"/></g>
<g><path fill="#353535" fill-opacity="0.961" d="M 628.04,92.02 c 0.65,0.08 0.88,0.44 0.67,1.08 c -0.42,-0.2 -0.65,-0.56 -0.67,-1.08 Z M 245.13,158.58 c 0.56,0.29 0.97,0.73 1.22,1.32 c -0.88,0 -1.29,-0.44 -1.22,-1.32 Z M 284.26,181.86 c 0.49,0.36 0.75,0.85 0.79,1.49 c -0.6,-0.32 -0.86,-0.82 -0.79,-1.49 Z"/></g>
<g><path fill="#444444" fill-opacity="0.647" d="M 649.33,38.05 c -0.33,0.65 -0.86,0.95 -1.59,0.92 c 0.34,-0.63 0.87,-0.93 1.59,-0.92 Z M 102.23,58.12 c -0.18,0.59 -0.55,1.01 -1.13,1.24 c -0.01,-0.77 0.36,-1.19 1.13,-1.24 Z M 172.01,148.75 c 0.67,0.33 1.02,0.88 1.05,1.64 c -0.69,-0.33 -1.04,-0.87 -1.05,-1.64 Z"/></g>
<g><path fill="#474747" fill-opacity="0.745" d="M 119,38.72 c 0.57,0.33 0.88,0.84 0.93,1.52 c -0.61,-0.32 -0.92,-0.82 -0.93,-1.52 Z M 380.14,134.85 c 0.69,0.63 0.98,1.43 0.86,2.4 c -1.06,-0.1 -0.93,-1.65 -0.86,-2.4 Z"/></g>
<g><path fill="#575757" fill-opacity="0.533" d="M 685.8,174.66 c 0.71,0.21 1.14,0.67 1.28,1.38 c -0.78,-0.12 -1.2,-0.58 -1.28,-1.38 Z M 687.08,176.04 c 0.61,0.19 0.92,0.61 0.92,1.26 c -0.51,-0.28 -0.81,-0.69 -0.92,-1.26 Z M 609.11,204.7 c 0.57,0.42 0.88,0.99 0.92,1.71 c -0.66,-0.38 -0.97,-0.95 -0.92,-1.71 Z"/></g>
<g><path fill="#2c2c2c" fill-opacity="0.965" d="M 952.91,44.23 c 0.67,-0.11 1.12,0.16 1.35,0.8 c -0.66,0.01 -1.11,-0.26 -1.35,-0.8 Z M 541.04,46.01 c -0.18,0.61 -0.58,0.88 -1.21,0.82 c 0.22,-0.54 0.63,-0.81 1.21,-0.82 Z M 159.32,121.89 c 0.41,0.25 0.63,0.62 0.66,1.11 c -0.58,-0.14 -0.81,-0.51 -0.66,-1.11 Z"/></g>
<g><path fill="#565656" fill-opacity="0.604" d="M 51.93,214.71 c 0.5,0.32 0.84,0.75 1.03,1.31 c -0.71,-0.14 -1.05,-0.57 -1.03,-1.31 Z M 52.96,216.02 c 0.64,0.08 0.99,0.45 1.03,1.1 c -0.66,-0.07 -1,-0.44 -1.03,-1.1 Z M 53.99,217.12 c 0.58,0.05 1.01,0.33 1.28,0.84 c -0.6,-0.02 -1.03,-0.3 -1.28,-0.84 Z"/></g>
<g><path fill="#4c4c4c" fill-opacity="0.533" d="M 155.96,115.74 c 0.68,0.24 1.03,0.74 1.06,1.5 c -0.67,-0.28 -1.02,-0.78 -1.06,-1.5 Z M 186.95,179.68 c 0.62,0.28 0.93,0.77 0.93,1.47 c -0.62,-0.28 -0.93,-0.77 -0.93,-1.47 Z M 827.1,182.75 c 0.59,0.39 0.87,0.95 0.84,1.67 c -0.57,-0.4 -0.85,-0.96 -0.84,-1.67 Z"/></g>
<g><path fill="#4e4e4e" fill-opacity="0.816" d="M 631,180.76 c 1.08,-0.12 0.97,1.59 1,2.28 c -1.12,-0.07 -1.02,-1.5 -1,-2.28 Z M 847.79,206.22 c 0.7,-0.04 1.2,0.26 1.5,0.89 c -0.69,0 -1.19,-0.3 -1.5,-0.89 Z"/></g>
<g><path fill="#404040" fill-opacity="0.804" d="M 381.01,209.66 c 0.19,1.28 -0.08,2.45 -0.81,3.49 c -0.2,-1 -0.49,-3.13 0.81,-3.49 Z"/></g>
<g><path fill="#2a2a2a" fill-opacity="0.969" d="M 398.01,106.98 c 0.52,0.17 0.97,0.46 1.35,0.86 c -0.7,0.07 -1.16,-0.21 -1.35,-0.86 Z M 425.11,125.28 c -0.24,0.44 -0.62,0.67 -1.13,0.69 c 0.12,-0.65 0.49,-0.88 1.13,-0.69 Z M 458.91,133.71 c 0.66,0.25 0.94,0.72 0.83,1.43 c -0.5,-0.34 -0.78,-0.81 -0.83,-1.43 Z"/></g>
<g><path fill="#575757" fill-opacity="0.482" stroke="#575757" stroke-width="0.5" stroke-opacity="0.482" d="M 744.6,198.83 c 0.76,0.07 1.32,0.43 1.68,1.1 c -0.79,-0.02 -1.35,-0.38 -1.68,-1.1 Z M 701.35,219.01 c -0.38,0.67 -0.95,1.01 -1.73,1.03 c 0.36,-0.7 0.93,-1.05 1.73,-1.03 Z M 959.38,219.04 c -0.4,0.68 -0.99,0.96 -1.79,0.84 c 0.42,-0.64 1.02,-0.92 1.79,-0.84 Z"/></g>
<g><path fill="#585858" fill-opacity="0.502" stroke="#585858" stroke-width="0.5" stroke-opacity="0.502" d="M 838.99,197.71 c 0.51,0.38 0.96,0.81 1.36,1.3 c -0.7,-0.17 -1.15,-0.61 -1.36,-1.3 Z M 690.3,224.96 c -0.33,0.62 -0.84,0.97 -1.54,1.03 c 0.29,-0.67 0.8,-1.01 1.54,-1.03 Z M 682.38,228.01 c -0.37,0.59 -0.92,0.89 -1.63,0.91 c 0.34,-0.65 0.89,-0.95 1.63,-0.91 Z"/></g>
<g><path fill="#3d3d3d" fill-opacity="0.965" d="M 403.04,112.78 c 0.6,0.16 0.91,0.56 0.93,1.21 c -0.66,-0.12 -0.97,-0.52 -0.93,-1.21 Z M 329.16,132.72 c -0.08,0.75 -0.46,1.3 -1.13,1.64 c 0.05,-0.78 0.42,-1.32 1.13,-1.64 Z M 534.28,220.9 c -0.3,0.7 -0.84,1.05 -1.62,1.04 c 0.36,-0.63 0.9,-0.97 1.62,-1.04 Z"/></g>
<g><path fill="#525252" fill-opacity="0.698" d="M 265.25,115.09 c -0.41,0.55 -0.96,0.83 -1.65,0.86 c 0.39,-0.6 0.94,-0.88 1.65,-0.86 Z M 641.11,138.72 c -0.05,0.76 -0.41,1.31 -1.08,1.65 c 0.01,-0.78 0.37,-1.34 1.08,-1.65 Z"/></g>
<g><path fill="#3b3b3b" fill-opacity="0.855" d="M 370.27,126.96 c -0.06,1.06 -1.55,1.02 -2.32,1.05 c 0.52,-0.83 1.3,-1.18 2.32,-1.05 Z"/></g>
<g><path fill="#474747" fill-opacity="0.604" d="M 107,46.62 c 0,0.74 -0.29,1.34 -0.89,1.77 c 0.05,-0.72 0.35,-1.31 0.89,-1.77 Z M 813.12,142.69 c 0.53,0.45 0.81,1.02 0.87,1.71 c -0.55,-0.43 -0.84,-1 -0.87,-1.71 Z"/></g>
<g><path fill="#525252" fill-opacity="0.659" d="M 303.99,195.76 c -0.03,0.7 -0.35,1.21 -0.95,1.56 c 0.01,-0.71 0.33,-1.23 0.95,-1.56 Z M 213.59,308.09 c 0.77,-0.04 1.36,0.26 1.79,0.89 c -0.73,-0.03 -1.33,-0.33 -1.79,-0.89 Z"/></g>
<g><path fill="#505050" fill-opacity="0.737" d="M 187.94,181.69 c 0.64,0.32 1.04,0.84 1.18,1.57 c -0.66,-0.32 -1.06,-0.84 -1.18,-1.57 Z M 190.11,185.58 c 0.51,0.47 0.81,1.05 0.91,1.75 c -0.69,-0.38 -0.99,-0.96 -0.91,-1.75 Z"/></g>
<g><path fill="#2e2e2e" fill-opacity="0.973" d="M 960.87,48.32 c 0.65,-0.18 1.02,0.06 1.11,0.73 c -0.45,-0.13 -0.82,-0.37 -1.11,-0.73 Z M 466.99,109.02 c 0.54,-0.01 0.92,0.22 1.14,0.7 c -0.61,0.13 -0.99,-0.1 -1.14,-0.7 Z"/></g>
<g><path fill="#585858" fill-opacity="0.682" d="M 305.74,115 c 1.09,-0.24 1.94,0.08 2.55,0.96 c -0.74,-0.04 -2.55,0.14 -2.55,-0.96 Z"/></g>
<g><path fill="#525252" fill-opacity="0.569" d="M 564.99,50.76 c 0.7,0.24 1.04,0.74 1.01,1.5 c -0.69,-0.25 -1.03,-0.75 -1.01,-1.5 Z M 879.34,52.98 c -0.37,0.62 -0.91,1 -1.63,1.13 c 0.28,-0.75 0.82,-1.13 1.63,-1.13 Z"/></g>
<g><path fill="#4a4a4a" fill-opacity="0.882" d="M 309.97,179.62 c -0.02,0.76 -0.35,1.32 -0.99,1.67 c 0.01,-0.75 0.34,-1.3 0.99,-1.67 Z M 242.99,291.01 c -0.15,0.67 -0.57,0.98 -1.27,0.96 c 0.25,-0.55 0.67,-0.86 1.27,-0.96 Z"/></g>
<g><path fill="#414141" fill-opacity="0.686" d="M 859.24,50.82 c -0.29,0.71 -0.82,1.07 -1.59,1.09 c 0.33,-0.65 0.86,-1.01 1.59,-1.09 Z M 318.96,156.75 c -0.03,0.68 -0.35,1.18 -0.95,1.48 c 0.04,-0.67 0.36,-1.16 0.95,-1.48 Z"/></g>
<g><path fill="#464646" fill-opacity="0.725" d="M 477.97,115.65 c 0.48,0.39 0.94,0.82 1.37,1.27 c -0.71,-0.16 -1.16,-0.58 -1.37,-1.27 Z M 245.85,160.67 c 0.71,0.29 1.1,0.82 1.18,1.58 c -0.63,-0.34 -1.02,-0.86 -1.18,-1.58 Z"/></g>
<g><path fill="#555555" fill-opacity="0.506" stroke="#555555" stroke-width="0.5" stroke-opacity="0.506" d="M 261.32,117.14 c -0.25,0.52 -0.66,0.81 -1.22,0.88 c 0.13,-0.66 0.53,-0.95 1.22,-0.88 Z M 260.1,118.02 c -0.33,0.49 -0.7,0.95 -1.11,1.37 c 0,-0.77 0.37,-1.23 1.11,-1.37 Z"/></g>
<g><path fill="#414141" fill-opacity="0.788" d="M 667.96,217 c 1,-0.09 1.79,0.24 2.39,0.97 c -0.79,0.08 -2.43,0.26 -2.39,-0.97 Z"/></g>
<g><path fill="#535353" fill-opacity="0.678" d="M 718.04,171.77 c 0.64,0.2 0.99,0.63 1.05,1.3 c -0.65,-0.18 -1,-0.62 -1.05,-1.3 Z M 719.09,173.07 c 0.65,0.2 0.98,0.64 0.97,1.34 c -0.6,-0.25 -0.93,-0.7 -0.97,-1.34 Z"/></g>
<g><path fill="#454545" fill-opacity="0.706" d="M 60.9,167.84 c -0.06,0.67 -0.37,1.18 -0.93,1.52 c -0.02,-0.72 0.29,-1.22 0.93,-1.52 Z M 851.71,209 c 0.76,0.07 1.29,0.45 1.6,1.15 c -0.71,-0.14 -1.25,-0.52 -1.6,-1.15 Z"/></g>
<g><path fill="#393939" fill-opacity="0.839" d="M 722.96,119.01 c 0.77,0.08 2.19,-0.04 2.41,0.95 c -0.78,0.04 -2.4,0.23 -2.41,-0.95 Z"/></g>
<g><path fill="#454545" fill-opacity="0.804" d="M 681.03,217.02 c -0.05,1.18 -1.54,1.02 -2.34,0.95 c 0.06,-1.02 1.63,-0.87 2.34,-0.95 Z"/></g>
<g><path fill="#4f4f4f" fill-opacity="0.686" d="M 65.1,158.7 c -0.13,0.7 -0.47,1.25 -1.04,1.65 c 0.01,-0.77 0.35,-1.32 1.04,-1.65 Z M 455.31,222.01 c -0.35,0.66 -0.9,0.98 -1.65,0.97 c 0.35,-0.63 0.9,-0.96 1.65,-0.97 Z"/></g>
<g><path fill="#474747" fill-opacity="0.953" d="M 441.7,123.06 c 0.77,0 2.19,-0.14 2.33,0.93 c -0.96,0.1 -1.73,-0.21 -2.33,-0.93 Z"/></g>
<g><path fill="#3d3d3d" fill-opacity="0.816" d="M 627,86.96 c 1.17,-0.08 1,1.39 0.8,2.11 c -0.82,0.22 -0.76,-1.63 -0.8,-2.11 Z"/></g>
<g><path fill="#585858" fill-opacity="0.569" d="M 653.05,85.72 c 0.61,0.36 0.89,0.9 0.84,1.61 c -0.56,-0.38 -0.84,-0.92 -0.84,-1.61 Z M 857.72,213.05 c 0.77,0.02 1.31,0.4 1.6,1.11 c -0.71,-0.13 -1.24,-0.5 -1.6,-1.11 Z"/></g>
<g><path fill="#313131" fill-opacity="0.976" d="M 234.35,310.03 c -0.62,0.73 -1.41,1.06 -2.38,0.97 c 0.55,-0.85 1.34,-1.17 2.38,-0.97 Z"/></g>
<g><path fill="#525252" fill-opacity="0.604" d="M 73.95,138.82 c -0.02,0.7 -0.35,1.18 -0.97,1.43 c 0.01,-0.7 0.34,-1.17 0.97,-1.43 Z M 866.63,218 c 0.8,0.01 1.37,0.37 1.7,1.09 c -0.77,-0.05 -1.33,-0.42 -1.7,-1.09 Z"/></g>
<g><path fill="#363636" fill-opacity="0.859" d="M 933.94,32.99 c 0.99,-0.09 1.78,0.24 2.38,0.97 c -0.8,0.04 -2.24,0.11 -2.38,-0.97 Z"/></g>
<g><path fill="#363636" fill-opacity="0.784" d="M 921.04,32.97 c -0.02,1.07 -1.44,0.98 -2.14,0.79 c -0.09,-0.76 1.66,-0.66 2.14,-0.79 Z"/></g>
<g><path fill="#424242" fill-opacity="0.667" d="M 94.05,75.76 c 0.01,0.72 -0.31,1.23 -0.97,1.52 c 0.06,-0.68 0.38,-1.19 0.97,-1.52 Z M 754.72,206.86 c 0.75,0.05 1.3,0.4 1.63,1.06 c -0.79,0.04 -1.34,-0.32 -1.63,-1.06 Z"/></g>
<g><path fill="#525252" fill-opacity="0.494" stroke="#525252" stroke-width="0.5" stroke-opacity="0.494" d="M 523.25,128.99 c -0.29,0.68 -0.81,1.01 -1.56,0.99 c 0.34,-0.61 0.86,-0.94 1.56,-0.99 Z M 971.29,211.83 c -0.3,0.71 -0.83,1.05 -1.6,1.04 c 0.36,-0.61 0.89,-0.95 1.6,-1.04 Z"/></g>
<g><path fill="#3c3c3c" fill-opacity="0.906" d="M 64.96,222 c 0.95,0 1.75,0.33 2.42,0.98 c -1.05,0.19 -1.86,-0.14 -2.42,-0.98 Z"/></g>
<g><path fill="#464646" fill-opacity="0.859" d="M 531.63,126.93 c 0.77,0.06 2.25,-0.03 2.37,1.04 c -1.06,0.18 -1.85,-0.17 -2.37,-1.04 Z"/></g>
<g><path fill="#4c4c4c" fill-opacity="0.58" d="M 562.03,46.64 c 0.44,0.39 0.77,0.85 0.98,1.39 c -0.69,-0.19 -1.01,-0.66 -0.98,-1.39 Z M 563.01,48.03 c 0.71,0.09 1.06,0.5 1.07,1.22 c -0.49,-0.29 -0.84,-0.7 -1.07,-1.22 Z"/></g>
<g><path fill="#282828" fill-opacity="0.992" d="M 218.7,310.05 c 0.69,-0.02 1.13,0.29 1.32,0.93 c -0.55,-0.14 -1,-0.45 -1.32,-0.93 Z"/></g>
<g><path fill="#575757" fill-opacity="0.886" d="M 463.06,146.73 c 0.65,0.3 0.97,0.81 0.94,1.54 c -0.64,-0.29 -0.95,-0.8 -0.94,-1.54 Z"/></g>
<g><path fill="#2f2f2f" fill-opacity="0.984" d="M 333.05,126.14 c -0.12,0.51 -0.41,0.88 -0.88,1.1 c -0.12,-0.71 0.17,-1.08 0.88,-1.1 Z"/></g>
<g><path fill="#303030" fill-opacity="0.992" d="M 229.96,129.01 c 0.64,0.11 0.88,0.49 0.73,1.13 c -0.46,-0.23 -0.7,-0.61 -0.73,-1.13 Z"/></g>
<g><path fill="#515151" fill-opacity="0.812" d="M 417.37,129.12 c -0.38,0.61 -0.93,0.91 -1.64,0.92 c 0.32,-0.69 0.87,-1 1.64,-0.92 Z"/></g>
<g><path fill="#434343" fill-opacity="0.922" d="M 161.01,125.79 c 0.62,0.3 0.92,0.79 0.93,1.48 c -0.59,-0.32 -0.9,-0.81 -0.93,-1.48 Z"/></g>
<g><path fill="#2c2c2c" fill-opacity="0.992" d="M 362.99,124.99 c -0.08,0.66 -0.45,0.9 -1.11,0.74 c 0.2,-0.47 0.57,-0.72 1.11,-0.74 Z"/></g>
<g><path fill="#323232" fill-opacity="0.992" d="M 378.98,130.65 c 0.7,0.31 1.02,0.84 0.96,1.61 c -0.56,-0.38 -0.88,-0.92 -0.96,-1.61 Z"/></g>
<g><path fill="#4c4c4c" fill-opacity="0.776" d="M 413.34,131.96 c -0.37,0.69 -0.95,1.05 -1.73,1.08 c 0.37,-0.68 0.95,-1.04 1.73,-1.08 Z"/></g>
<g><path fill="#4d4d4d" fill-opacity="0.561" d="M 633.4,132.89 c -0.34,0.69 -0.89,1.06 -1.66,1.11 c 0.36,-0.64 0.92,-1.01 1.66,-1.11 Z"/></g>
<g><path fill="#545454" fill-opacity="0.776" d="M 261,134.75 c 0.57,0.35 0.9,0.86 0.99,1.54 c -0.67,-0.29 -1,-0.8 -0.99,-1.54 Z"/></g>
<g><path fill="#4a4a4a" fill-opacity="0.537" d="M 539,135.8 c 0.64,0.28 0.98,0.77 1.02,1.47 c -0.65,-0.25 -0.99,-0.74 -1.02,-1.47 Z"/></g>
<g><path fill="#595959" fill-opacity="0.561" d="M 461.99,142.75 c 0.54,0.39 0.86,0.92 0.96,1.59 c -0.58,-0.37 -0.9,-0.9 -0.96,-1.59 Z"/></g>
<g><path fill="#4c4c4c" fill-opacity="0.616" d="M 526.35,123.14 c -0.42,0.59 -1,0.87 -1.73,0.85 c 0.38,-0.68 0.96,-0.96 1.73,-0.85 Z"/></g>
<g><path fill="#595959" fill-opacity="0.537" d="M 243.08,154.69 c 0.65,0.34 0.97,0.88 0.94,1.62 c -0.67,-0.33 -0.99,-0.87 -0.94,-1.62 Z"/></g>
<g><path fill="#434343" fill-opacity="0.937" d="M 66.36,157.01 c -0.45,0.5 -1,0.81 -1.65,0.95 c 0.41,-0.55 0.96,-0.87 1.65,-0.95 Z"/></g>
<g><path fill="#4e4e4e" fill-opacity="0.549" d="M 144.01,158.63 c 0.62,0.43 0.92,1.03 0.9,1.79 c -0.58,-0.45 -0.88,-1.05 -0.9,-1.79 Z"/></g>
<g><path fill="#444444" fill-opacity="0.69" d="M 317.96,159.74 c -0.01,0.72 -0.32,1.23 -0.96,1.53 c 0.01,-0.71 0.33,-1.22 0.96,-1.53 Z"/></g>
<g><path fill="#474747" fill-opacity="0.561" d="M 158.03,119.62 c 0.61,0.35 0.98,0.88 1.1,1.6 c -0.77,-0.25 -1.14,-0.78 -1.1,-1.6 Z"/></g>
<g><path fill="#545454" fill-opacity="0.616" d="M 709.04,161.67 c 0.47,0.41 0.89,0.87 1.26,1.38 c -0.67,-0.23 -1.09,-0.69 -1.26,-1.38 Z"/></g>
<g><path fill="#414141" fill-opacity="0.984" d="M 61.9,165.72 c 0.06,0.72 -0.22,1.25 -0.86,1.59 c -0.05,-0.73 0.23,-1.26 0.86,-1.59 Z"/></g>
<g><path fill="#4d4d4d" fill-opacity="0.718" d="M 307.93,165.7 c 0.06,0.71 -0.21,1.24 -0.81,1.61 c -0.09,-0.72 0.18,-1.26 0.81,-1.61 Z"/></g>
<g><path fill="#545454" fill-opacity="0.604" d="M 537.41,118.13 c -0.39,0.6 -0.95,0.89 -1.67,0.87 c 0.38,-0.62 0.93,-0.91 1.67,-0.87 Z"/></g>
<g><path fill="#4c4c4c" fill-opacity="0.808" d="M 740.92,169.6 c 0.05,0.68 -0.18,1.22 -0.7,1.64 c -0.15,-0.71 0.08,-1.26 0.7,-1.64 Z"/></g>
<g><path fill="#585858" fill-opacity="0.773" d="M 58,174.73 c -0.03,0.71 -0.34,1.25 -0.94,1.63 c -0.04,-0.75 0.27,-1.3 0.94,-1.63 Z"/></g>
<g><path fill="#3b3b3b" fill-opacity="0.976" d="M 185.99,177.66 c 0.52,0.34 0.78,0.83 0.8,1.47 c -0.56,-0.33 -0.82,-0.81 -0.8,-1.47 Z"/></g>
<g><path fill="#3a3a3a" fill-opacity="0.984" d="M 282.02,177.7 c 0.64,0.34 0.97,0.89 0.99,1.64 c -0.64,-0.35 -0.97,-0.9 -0.99,-1.64 Z"/></g>
<g><path fill="#464646" fill-opacity="0.686" d="M 425.31,114.95 c -0.28,0.7 -0.8,1.06 -1.55,1.1 c 0.29,-0.68 0.81,-1.04 1.55,-1.1 Z"/></g>
<g><path fill="#494949" fill-opacity="0.902" d="M 347.4,115.02 c -0.37,0.59 -0.91,0.91 -1.62,0.97 c 0.34,-0.64 0.88,-0.97 1.62,-0.97 Z"/></g>
<g><path fill="#535353" fill-opacity="0.482" stroke="#535353" stroke-width="0.5" stroke-opacity="0.482" d="M 387.33,112.05 c -0.37,0.65 -0.93,0.94 -1.69,0.86 c 0.4,-0.6 0.96,-0.89 1.69,-0.86 Z"/></g>
<g><path fill="#4e4e4e" fill-opacity="0.651" d="M 52.95,186.66 c -0.05,0.75 -0.37,1.33 -0.97,1.74 c 0.03,-0.74 0.36,-1.32 0.97,-1.74 Z"/></g>
<g><path fill="#505050" fill-opacity="0.498" d="M 633.01,187.6 c 0.6,0.42 0.92,1 0.98,1.74 c -0.62,-0.41 -0.95,-0.99 -0.98,-1.74 Z"/></g>
<g><path fill="#4a4a4a" fill-opacity="0.659" d="M 998.99,187.73 c -0.1,0.66 -0.43,1.15 -0.99,1.49 c 0,-0.72 0.33,-1.22 0.99,-1.49 Z"/></g>
<g><path fill="#575757" fill-opacity="0.745" d="M 158.99,189.63 c 0.63,0.39 0.96,0.96 0.97,1.72 c -0.59,-0.42 -0.92,-0.99 -0.97,-1.72 Z"/></g>
<g><path fill="#565656" fill-opacity="0.71" d="M 288,189.65 c 0.66,0.37 1,0.93 1.04,1.69 c -0.67,-0.36 -1.02,-0.92 -1.04,-1.69 Z"/></g>
<g><path fill="#444444" fill-opacity="0.631" d="M 193.03,191.64 c 0.63,0.34 0.89,0.86 0.8,1.57 c -0.58,-0.35 -0.85,-0.88 -0.8,-1.57 Z"/></g>
<g><path fill="#4a4a4a" fill-opacity="0.718" d="M 193.98,193.79 c 0.63,0.23 0.96,0.7 1.01,1.4 c -0.63,-0.24 -0.97,-0.71 -1.01,-1.4 Z"/></g>
<g><path fill="#404040" fill-opacity="0.667" d="M 605.11,194.79 c 0.63,0.33 0.92,0.86 0.87,1.59 c -0.52,-0.39 -0.81,-0.92 -0.87,-1.59 Z"/></g>
<g><path fill="#515151" fill-opacity="0.62" d="M 195.07,195.79 c 0.66,0.31 1.04,0.84 1.13,1.59 c -0.68,-0.32 -1.06,-0.85 -1.13,-1.59 Z"/></g>
<g><path fill="#4b4b4b" fill-opacity="0.561" d="M 86.06,111.65 c -0.15,0.7 -0.5,1.28 -1.05,1.73 c 0.01,-0.79 0.36,-1.36 1.05,-1.73 Z"/></g>
<g><path fill="#444444" fill-opacity="0.902" d="M 195.79,198.11 c 0.76,0.03 1.19,0.42 1.29,1.17 c -0.63,-0.17 -1.06,-0.57 -1.29,-1.17 Z"/></g>
<g><path fill="#4a4a4a" fill-opacity="0.58" d="M 683.23,107.96 c -0.3,0.65 -0.82,1.01 -1.54,1.08 c 0.3,-0.66 0.81,-1.02 1.54,-1.08 Z"/></g>
<g><path fill="#484848" fill-opacity="0.71" d="M 458.71,107.04 c 0.69,0.07 1.25,0.37 1.67,0.91 c -0.74,0.02 -1.3,-0.29 -1.67,-0.91 Z"/></g>
<g><path fill="#545454" fill-opacity="0.953" d="M 709.92,200.62 c 1.27,0.59 1.26,1.17 -0.03,1.76 c 0.01,-0.59 0.02,-1.17 0.03,-1.76 Z"/></g>
<g><path fill="#4b4b4b" fill-opacity="0.667" d="M 715.22,207 c -0.32,0.48 -0.68,0.93 -1.09,1.34 c 0.05,-0.71 0.41,-1.15 1.09,-1.34 Z"/></g>
<g><path fill="#585858" fill-opacity="0.592" d="M 565.01,207.76 c 0.56,0.33 0.91,0.81 1.06,1.45 c -0.61,-0.3 -0.96,-0.78 -1.06,-1.45 Z"/></g>
<g><path fill="#4d4d4d" fill-opacity="0.608" d="M 686.41,106.04 c -0.42,0.58 -0.99,0.93 -1.69,1.06 c 0.31,-0.75 0.87,-1.1 1.69,-1.06 Z"/></g>
<g><path fill="#4b4b4b" fill-opacity="0.573" d="M 854.59,211.11 c 0.83,-0.08 1.4,0.27 1.71,1.02 c -0.69,-0.13 -1.26,-0.47 -1.71,-1.02 Z"/></g>
<g><path fill="#585858" fill-opacity="0.671" d="M 50.03,211.61 c 0.57,0.39 0.92,0.93 1.06,1.62 c -0.77,-0.26 -1.12,-0.8 -1.06,-1.62 Z"/></g>
<g><path fill="#4d4d4d" fill-opacity="0.596" d="M 565.99,212.71 c 0.56,0.33 0.88,0.82 0.95,1.49 c -0.64,-0.27 -0.96,-0.77 -0.95,-1.49 Z"/></g>
<g><path fill="#434343" fill-opacity="0.894" d="M 632,102.67 c 0.69,0.32 1.02,0.86 0.99,1.62 c -0.62,-0.34 -0.95,-0.88 -0.99,-1.62 Z"/></g>
<g><path fill="#434343" fill-opacity="0.706" d="M 888.68,213.85 c 0.72,0.13 1.24,0.51 1.57,1.16 c -0.78,-0.04 -1.3,-0.42 -1.57,-1.16 Z"/></g>
<g><path fill="#545454" fill-opacity="0.569" d="M 149.04,100.73 c 0.66,0.34 0.95,0.89 0.9,1.64 c -0.65,-0.35 -0.95,-0.9 -0.9,-1.64 Z"/></g>
<g><path fill="#464646" fill-opacity="0.616" d="M 965.38,216.05 c -0.39,0.57 -0.93,0.9 -1.62,0.98 c 0.31,-0.7 0.85,-1.03 1.62,-0.98 Z"/></g>
<g><path fill="#505050" fill-opacity="0.514" d="M 93.98,93.61 c 0.05,0.79 -0.27,1.35 -0.97,1.69 c -0.04,-0.78 0.28,-1.34 0.97,-1.69 Z"/></g>
<g><path fill="#525252" fill-opacity="0.792" d="M 991.01,84.77 c 0.66,0.27 0.98,0.77 0.94,1.48 c -0.58,-0.32 -0.89,-0.81 -0.94,-1.48 Z"/></g>
<g><path fill="#4f4f4f" fill-opacity="0.608" d="M 619.68,217.95 c 0.76,0.13 1.32,0.54 1.67,1.23 c -0.78,-0.11 -1.34,-0.52 -1.67,-1.23 Z"/></g>
<g><path fill="#2f2f2f" fill-opacity="0.961" d="M 789.97,218.04 c -0.11,0.61 -0.46,0.86 -1.08,0.73 c 0.2,-0.44 0.56,-0.69 1.08,-0.73 Z"/></g>
<g><path fill="#262626" fill-opacity="0.969" d="M 898.72,218.94 c 0.61,0.07 1.07,0.34 1.38,0.83 c -0.69,0.12 -1.15,-0.15 -1.38,-0.83 Z"/></g>
<g><path fill="#505050" fill-opacity="0.553" d="M 991.4,219.15 c -0.45,0.57 -1.04,0.84 -1.77,0.8 c 0.44,-0.58 1.04,-0.85 1.77,-0.8 Z"/></g>
<g><path fill="#575757" fill-opacity="0.855" d="M 375.36,220.84 c -0.29,0.74 -0.83,1.13 -1.61,1.17 c 0.33,-0.66 0.87,-1.05 1.61,-1.17 Z"/></g>
<g><path fill="#4b4b4b" fill-opacity="0.945" d="M 412.74,220.93 c 0.71,0.08 1.26,0.42 1.64,1.03 c -0.78,0.01 -1.32,-0.33 -1.64,-1.03 Z"/></g>
<g><path fill="#444444" fill-opacity="0.584" d="M 623.68,221.04 c 0.77,-0.02 1.28,0.32 1.56,1.03 c -0.71,-0.07 -1.23,-0.41 -1.56,-1.03 Z"/></g>
<g><path fill="#4e4e4e" fill-opacity="0.745" d="M 904.72,221 c 0.71,0.1 1.24,0.45 1.61,1.04 c -0.78,0 -1.31,-0.35 -1.61,-1.04 Z"/></g>
<g><path fill="#3c3c3c" fill-opacity="0.961" d="M 372,222.01 c -0.11,0.71 -0.54,1.06 -1.27,1.04 c 0.23,-0.57 0.65,-0.92 1.27,-1.04 Z"/></g>
<g><path fill="#474747" fill-opacity="0.886" d="M 498.76,222.01 c 0.71,0.08 1.24,0.41 1.59,1.01 c -0.71,-0.06 -1.24,-0.4 -1.59,-1.01 Z"/></g>
<g><path fill="#272727" fill-opacity="0.976" d="M 99.73,62.84 c 0.12,0.61 -0.12,1 -0.7,1.16 c 0.07,-0.49 0.31,-0.88 0.7,-1.16 Z"/></g>
<g><path fill="#414141" fill-opacity="0.678" d="M 733.6,222.1 c 0.79,-0.02 1.34,0.33 1.64,1.05 c -0.69,-0.13 -1.24,-0.48 -1.64,-1.05 Z"/></g>
<g><path fill="#444444" fill-opacity="0.953" d="M 878.61,223 c 0.78,-0.02 1.35,0.31 1.72,0.98 c -0.74,-0.05 -1.32,-0.38 -1.72,-0.98 Z"/></g>
<g><path fill="#484848" fill-opacity="0.553" d="M 872.41,59.05 c -0.46,0.47 -0.96,0.89 -1.5,1.26 c 0.24,-0.74 0.74,-1.15 1.5,-1.26 Z"/></g>
<g><path fill="#505050" fill-opacity="0.627" d="M 785.27,224.97 c -0.32,0.66 -0.85,1.01 -1.61,1.06 c 0.36,-0.62 0.9,-0.97 1.61,-1.06 Z"/></g>
<g><path fill="#525252" fill-opacity="0.71" d="M 884.66,225.03 c 0.73,0 1.27,0.33 1.61,0.97 c -0.7,-0.08 -1.24,-0.41 -1.61,-0.97 Z"/></g>
<g><path fill="#484848" fill-opacity="0.573" d="M 103,55.65 c -0.01,0.83 -0.41,1.35 -1.19,1.59 c 0.19,-0.7 0.59,-1.23 1.19,-1.59 Z"/></g>
<g><path fill="#515151" fill-opacity="0.533" d="M 650.96,50.7 c -0.04,0.68 -0.35,1.19 -0.93,1.54 c 0.01,-0.7 0.32,-1.21 0.93,-1.54 Z"/></g>
<g><path fill="#535353" fill-opacity="0.886" d="M 277.96,225.66 c 0.7,0.32 1.02,0.87 0.96,1.65 c -0.6,-0.38 -0.92,-0.93 -0.96,-1.65 Z"/></g>
<g><path fill="#424242" fill-opacity="0.62" d="M 653.15,46.67 c -0.14,0.74 -0.52,1.3 -1.15,1.69 c 0.08,-0.77 0.47,-1.33 1.15,-1.69 Z"/></g>
<g><path fill="#494949" fill-opacity="0.604" d="M 121.99,44.76 c 0.67,0.31 0.99,0.83 0.96,1.57 c -0.58,-0.36 -0.9,-0.88 -0.96,-1.57 Z"/></g>
<g><path fill="#353535" fill-opacity="0.976" d="M 898.35,43.03 c -0.28,0.54 -0.73,0.85 -1.34,0.94 c 0.16,-0.68 0.61,-1 1.34,-0.94 Z"/></g>
<g><path fill="#414141" fill-opacity="0.906" d="M 552.6,43.06 c 0.69,0.1 1.29,0.41 1.78,0.91 c -0.77,0.01 -1.36,-0.29 -1.78,-0.91 Z"/></g>
<g><path fill="#383838" fill-opacity="0.969" d="M 780.31,227.02 c -0.41,0.52 -0.95,0.8 -1.63,0.84 c 0.41,-0.53 0.96,-0.81 1.63,-0.84 Z"/></g>
<g><path fill="#494949" fill-opacity="0.592" d="M 279.09,227.66 c 0.61,0.38 0.88,0.92 0.82,1.64 c -0.59,-0.38 -0.86,-0.93 -0.82,-1.64 Z"/></g>
<g><path fill="#323232" fill-opacity="0.945" d="M 677.29,229.03 c -0.31,0.49 -0.75,0.81 -1.31,0.95 c 0.17,-0.66 0.61,-0.98 1.31,-0.95 Z"/></g>
<g><path fill="#373737" fill-opacity="0.961" d="M 905.32,41.02 c -0.43,0.55 -1.01,0.87 -1.71,0.93 c 0.41,-0.6 0.98,-0.91 1.71,-0.93 Z"/></g>
<g><path fill="#585858" fill-opacity="0.729" d="M 279.97,229.81 c 0.7,0.27 1.06,0.78 1.1,1.53 c -0.64,-0.31 -1.01,-0.82 -1.1,-1.53 Z"/></g>
<g><path fill="#505050" fill-opacity="0.639" d="M 754.76,230 c 0.71,0.08 1.19,0.45 1.45,1.11 c -0.69,-0.12 -1.17,-0.49 -1.45,-1.11 Z"/></g>
<g><path fill="#545454" fill-opacity="0.631" d="M 768.32,229.99 c -0.31,0.6 -0.81,0.92 -1.5,0.96 c 0.3,-0.62 0.8,-0.94 1.5,-0.96 Z"/></g>
<g><path fill="#595959" fill-opacity="0.459" d="M 949.36,229.98 c -0.36,0.55 -0.87,0.89 -1.52,1.03 c 0.24,-0.69 0.75,-1.03 1.52,-1.03 Z"/></g>
<g><path fill="#494949" fill-opacity="0.792" d="M 972.69,39.05 c 0.72,0.04 1.25,0.37 1.58,0.99 c -0.72,-0.04 -1.24,-0.37 -1.58,-0.99 Z"/></g>
<g><path fill="#464646" fill-opacity="0.631" d="M 224.69,286.03 c 0.75,-0.01 1.29,0.31 1.63,0.97 c -0.74,0 -1.29,-0.32 -1.63,-0.97 Z"/></g>
<g><path fill="#343434" fill-opacity="0.937" d="M 247.98,290.01 c -0.05,0.68 -0.41,0.92 -1.08,0.74 c 0.2,-0.44 0.56,-0.69 1.08,-0.74 Z"/></g>
<g><path fill="#484848" fill-opacity="0.627" d="M 249.33,303.03 c -0.33,0.69 -0.87,1.08 -1.64,1.17 c 0.26,-0.79 0.81,-1.18 1.64,-1.17 Z"/></g>
<g><path fill="#535353" fill-opacity="0.749" d="M 210.92,304.74 c 0.73,0.28 1.04,0.81 0.94,1.6 c -0.54,-0.4 -0.85,-0.93 -0.94,-1.6 Z"/></g>
<g><path fill="#4b4b4b" fill-opacity="0.729" d="M 246.36,304.97 c -0.41,0.63 -0.99,1.01 -1.74,1.14 c 0.35,-0.74 0.93,-1.12 1.74,-1.14 Z"/></g>
<g><path fill="#4a4a4a" fill-opacity="0.62" d="M 238.27,309.06 c -0.34,0.61 -0.86,0.91 -1.57,0.89 c 0.33,-0.62 0.85,-0.92 1.57,-0.89 Z"/></g>
<g><path fill="#595959" fill-opacity="0.647" d="M 996.11,212.71 c -0.21,0.65 -0.57,1.21 -1.09,1.66 c 0.03,-0.78 0.4,-1.33 1.09,-1.66 Z M 658.77,231.07 c 1.17,-0.03 2.33,-0.06 3.49,-0.08 c -0.52,1.39 -2.8,1.49 -3.49,0.08 Z"/></g>
<g><path fill="#4c4c4c" fill-opacity="0.549" d="M 630.92,166.71 c 0.03,2.2 0.07,4.4 0.1,6.61 c -1.63,-0.43 -1.44,-5.93 -0.1,-6.61 Z"/></g>
<g><path fill="#595959" fill-opacity="0.576" d="M 340.33,111.14 c -1.01,1.28 -3.17,0.69 -4.61,0.93 c 0.48,-1.7 3.28,-0.96 4.61,-0.93 Z M 981.3,223 c -0.34,0.65 -0.88,0.98 -1.62,0.99 c 0.36,-0.62 0.9,-0.94 1.62,-0.99 Z"/></g>
<g><path fill="#575757" fill-opacity="0.655" d="M 258.26,111.05 c -0.2,1.61 -6.4,0.65 -7.65,1.07 c 0.36,-0.74 0.97,-1.09 1.84,-1.04 c 1.94,-0.14 3.88,-0.16 5.81,-0.03 Z"/></g>
<g><path fill="#3e3e3e" fill-opacity="0.918" d="M 112.77,34.99 c 1.2,0.13 4.01,-0.49 4.57,0.96 c -1.13,-0.13 -4.31,0.69 -4.57,-0.96 Z M 132.01,65.76 c 0.63,0.29 1.01,0.78 1.13,1.47 c -0.68,-0.26 -1.06,-0.75 -1.13,-1.47 Z M 774.3,124.03 c -0.29,0.52 -0.74,0.83 -1.33,0.93 c 0.18,-0.66 0.63,-0.97 1.33,-0.93 Z"/></g>
</svg>
